<svg width="387" height="430" viewBox="0 0 387 430" fill="none" xmlns="http://www.w3.org/2000/svg">
<g opacity="0.1">
<path d="M108.061 65.3227C108.061 56.1142 107.24 47.4132 108.231 38.9298C109.598 28.4882 114.626 18.8707 122.42 11.7892C130.214 4.70765 140.268 0.621753 150.793 0.258764C195.168 -0.176285 239.543 0.0170698 283.918 0.258764C286.841 0.426513 289.612 1.6155 291.749 3.61827C322.444 34.0072 353.01 64.5251 383.447 95.1719C385.58 97.5757 386.788 100.66 386.855 103.873C387.048 175.076 387.048 246.271 386.855 317.458C386.855 344.044 366.674 363.38 339.29 363.742C321.404 363.935 303.543 363.742 285.682 363.742H279.615V382.062C279.801 391.965 276.764 401.66 270.963 409.688C266.747 415.797 261.078 420.762 254.467 424.137C247.856 427.513 240.51 429.192 233.089 429.024C170.853 429.169 108.593 429.265 46.3567 429.024C19.7704 428.903 0.0241694 408.649 0 381.942C0 292.128 0 202.323 0 112.526C0 85.3833 20.0123 65.6128 47.2271 65.4919C65.4024 65.4919 83.481 65.4919 101.729 65.4919L108.061 65.3227ZM168.05 83.5948H110.599C89.5959 83.5948 68.5926 83.5948 47.6136 83.5948C30.0908 83.5948 18.6103 95.317 18.6103 112.888C18.6103 202.395 18.6103 291.895 18.6103 381.386C18.6103 398.884 30.2843 410.389 47.8313 410.389C109.173 410.389 170.523 410.389 231.881 410.389C234.106 410.454 236.332 410.3 238.527 409.93C252.691 407.15 261.295 396.153 261.295 380.637C261.295 314.364 261.295 248.092 261.295 181.819C261.295 180.369 261.15 178.943 261.054 176.985H255.978C241.839 176.985 227.7 177.227 213.561 176.864C207.512 176.811 201.533 175.563 195.967 173.191C190.402 170.82 185.36 167.373 181.131 163.047C176.902 158.722 173.569 153.603 171.324 147.986C169.079 142.369 167.967 136.363 168.05 130.314C168.05 116.465 168.05 102.616 168.05 88.767V83.5948ZM279.712 345.156H285.15C302.576 345.156 320.003 344.624 337.405 345.301C354.806 345.978 368.825 334.014 368.825 314.001C368.366 248.478 368.656 182.955 368.656 117.456V111.655H363.338C350.093 111.655 336.752 111.655 323.58 111.655C295.35 111.655 275.483 91.764 275.41 63.6067C275.41 50.1927 275.41 36.8029 275.41 23.3889V18.7C274.817 18.5061 274.211 18.3526 273.597 18.2408C233.404 18.2408 193.21 18.0958 153.016 18.2408C147.37 18.236 141.868 20.0206 137.3 23.3382C132.732 26.6558 129.333 31.3359 127.59 36.7062C124.472 45.963 126.551 55.4616 125.922 65.1777C142.623 65.1777 158.527 65.2985 174.43 65.1777C176.633 65.0781 178.831 65.4589 180.872 66.2936C182.913 67.1283 184.748 68.397 186.249 70.0116C215.671 99.5788 245.166 129.041 274.733 158.399C276.451 160.02 277.799 161.993 278.683 164.183C279.568 166.373 279.968 168.729 279.857 171.088C279.728 227.064 279.728 283.049 279.857 339.041L279.712 345.156ZM186.612 97.1538C186.612 109.384 186.346 120.816 186.612 132.199C186.843 139.193 189.779 145.824 194.801 150.697C199.823 155.57 206.539 158.305 213.536 158.327C223.808 158.496 234.08 158.327 244.328 158.327C245.295 158.327 246.238 158.133 247.059 158.061C227.144 138 207.228 117.988 186.612 97.1538ZM353.888 93.0209L294.286 33.1291C294.286 45.5039 293.271 58.4586 294.601 71.1717C295.857 83.2564 307.41 92.61 319.423 92.9242C331.072 93.3834 342.625 93.1175 353.888 93.1175V93.0209Z" fill="black"/>
<path d="M139.747 363.621H57.958C50.9489 363.5 46.6224 359.947 46.6466 354.316C46.6708 348.684 51.0456 345.156 58.0306 345.156H221.512C222.706 345.11 223.901 345.151 225.089 345.276C227.245 345.597 229.22 346.662 230.673 348.286C232.125 349.911 232.963 351.993 233.041 354.171C233.077 356.284 232.371 358.343 231.047 359.99C229.722 361.637 227.862 362.768 225.79 363.186C223.892 363.525 221.965 363.67 220.038 363.621H139.747Z" fill="black"/>
<path d="M140.132 279.85H220.06C221.673 279.796 223.287 279.837 224.894 279.971C227.057 280.241 229.056 281.263 230.541 282.858C232.025 284.453 232.902 286.52 233.015 288.696C233.09 290.876 232.376 293.01 231.004 294.706C229.632 296.402 227.694 297.546 225.547 297.929C223.636 298.22 221.703 298.341 219.77 298.292H59.89C57.9576 298.341 56.0246 298.22 54.1135 297.929C51.966 297.546 50.0284 296.402 48.6565 294.706C47.2847 293.01 46.5704 290.876 46.6449 288.696C46.7578 286.524 47.6306 284.46 49.1106 282.865C50.5905 281.27 52.5837 280.246 54.7419 279.971C56.3495 279.837 57.9635 279.797 59.5758 279.85H140.132Z" fill="black"/>
<path d="M102.526 232.841C87.3474 232.841 72.1691 232.841 56.9907 232.841C49.5707 232.841 45.1719 227.234 47.323 220.926C48.6764 216.817 51.8668 214.617 56.9907 214.617C75.1419 214.617 93.2449 214.617 111.444 214.617C124.109 214.617 136.75 214.617 149.39 214.617C151.356 214.509 153.298 215.089 154.882 216.258C156.466 217.427 157.592 219.112 158.067 221.022C158.778 222.862 158.805 224.895 158.145 226.754C157.484 228.612 156.179 230.171 154.466 231.149C152.225 232.293 149.73 232.85 147.215 232.769C132.279 232.914 117.39 232.841 102.526 232.841Z" fill="black"/>
<path d="M317.318 279.874C321.91 279.874 326.527 279.754 331.143 279.874C333.552 279.848 335.874 280.772 337.607 282.446C339.339 284.12 340.343 286.409 340.4 288.817C340.455 289.977 340.279 291.137 339.883 292.229C339.486 293.321 338.877 294.323 338.09 295.177C337.303 296.031 336.354 296.721 335.298 297.206C334.243 297.691 333.101 297.961 331.94 298.001C322.273 298.316 312.315 298.34 302.502 298.001C301.303 297.987 300.121 297.724 299.029 297.228C297.937 296.733 296.96 296.015 296.161 295.122C295.361 294.229 294.755 293.18 294.382 292.04C294.009 290.901 293.877 289.696 293.995 288.503C294.101 286.096 295.159 283.83 296.936 282.203C298.712 280.576 301.062 279.721 303.469 279.826H317.318V279.874Z" fill="black"/>
<path d="M317.27 214.568C321.742 214.568 326.213 214.568 330.66 214.568C331.88 214.51 333.101 214.695 334.249 215.111C335.398 215.528 336.453 216.169 337.352 216.996C338.251 217.823 338.977 218.821 339.488 219.931C339.999 221.041 340.284 222.242 340.328 223.463C340.357 224.724 340.124 225.977 339.643 227.143C339.163 228.31 338.446 229.363 337.537 230.238C336.628 231.113 335.548 231.789 334.364 232.225C333.18 232.66 331.919 232.845 330.66 232.768C321.596 232.913 312.509 232.913 303.445 232.768C302.213 232.85 300.977 232.672 299.818 232.247C298.658 231.823 297.6 231.16 296.712 230.301C295.824 229.443 295.126 228.408 294.662 227.264C294.198 226.119 293.979 224.89 294.019 223.656C293.997 222.426 294.229 221.204 294.701 220.067C295.173 218.931 295.875 217.904 296.762 217.051C297.649 216.198 298.702 215.537 299.857 215.11C301.011 214.683 302.241 214.498 303.469 214.568C308.061 214.496 312.678 214.568 317.27 214.568Z" fill="black"/>
</g>
</svg>
