<svg width="84" height="90" viewBox="0 0 84 90" fill="none" xmlns="http://www.w3.org/2000/svg">
<path d="M28.1244 62.8634C28.676 63.1721 29.2991 63.3302 29.9312 63.3217C30.5611 63.3303 31.1821 63.1722 31.7313 62.8634C32.2619 62.5603 32.6987 62.1167 32.9934 61.5813C33.3057 61.0095 33.4637 60.3662 33.4518 59.7147C33.4637 59.0633 33.3057 58.42 32.9934 57.8481C32.6987 57.3128 32.2619 56.8692 31.7313 56.5661C31.1821 56.2573 30.5611 56.0992 29.9312 56.1078C29.2991 56.0993 28.676 56.2574 28.1244 56.5661C27.5937 56.8692 27.157 57.3128 26.8622 57.8481C26.55 58.42 26.3921 59.0633 26.4039 59.7147C26.3921 60.3662 26.55 61.0095 26.8622 61.5813C27.157 62.1167 27.5937 62.5603 28.1244 62.8634Z" fill="url(#paint0_linear_76_731)"/>
<path d="M19.8669 59.714C19.8908 59.2419 19.8138 58.7702 19.6408 58.3303C19.4678 57.8904 19.2029 57.4925 18.8638 57.1632C18.1233 56.5074 17.1548 56.1686 16.1669 56.2199H13.7822V63.208H16.1669C17.1548 63.2593 18.1233 62.9206 18.8638 62.2648C19.2029 61.9355 19.4678 61.5375 19.6408 61.0977C19.8138 60.6578 19.8908 60.186 19.8669 59.714Z" fill="url(#paint1_linear_76_731)"/>
<path d="M83.0193 29.1446C83.0501 28.4971 82.9401 27.8507 82.697 27.2497C82.4539 26.6488 82.0834 26.1078 81.611 25.6639C73.4759 17.5863 65.3674 9.48668 57.2855 1.36487C56.8774 0.9149 56.3757 0.559805 55.8157 0.324541C55.2556 0.0892773 54.6508 -0.0204351 54.0438 0.0031304C49.6729 0.0695574 45.2954 0.0031304 40.7119 0.0031304H34.1091C29.1138 0.0031304 24.145 0.0031304 19.1298 0.0031304C11.6501 0.0031304 6.15666 5.47006 6.15002 12.9298C6.15002 25.6971 6.15002 35.794 6.15002 45.9839H5.33955C3.93015 45.9839 2.57846 46.5438 1.58187 47.5403C0.585269 48.5369 0.0253906 49.8886 0.0253906 51.298V68.8347C0.0253906 70.2441 0.585269 71.5958 1.58187 72.5924C2.57846 73.589 3.93015 74.1489 5.33955 74.1489H6.16988V77.0119C6.16988 84.3521 11.5704 89.9187 18.9106 89.9519C36.0156 90.0316 53.1205 89.9984 70.2321 89.9519C72.271 89.9945 74.2887 89.5315 76.1051 88.6042C77.9214 87.6769 79.4798 86.3141 80.6411 84.6377C82.2317 82.4294 83.0659 79.7662 83.0193 77.0451V65.3407C82.9993 49.9562 82.9861 44.549 83.0193 29.1446ZM57.4116 8.8047L74.0184 25.5576C73.7698 25.5964 73.5192 25.6208 73.2678 25.6306C70.4446 25.6306 67.6281 25.6705 64.805 25.6306C62.8812 25.6231 61.0353 24.87 59.6553 23.5296C58.2752 22.1892 57.4686 20.366 57.405 18.4433C57.3386 15.3212 57.4116 12.1725 57.4116 8.8047ZM11.1785 54.0813H16.2933C17.4129 54.0483 18.5249 54.2757 19.5416 54.7456C20.444 55.1897 21.2019 55.8807 21.7271 56.7384C22.2631 57.632 22.5349 58.6593 22.511 59.701C22.5349 60.7428 22.2631 61.77 21.7271 62.6637C21.2019 63.5214 20.444 64.2124 19.5416 64.6565C18.5276 65.1378 17.4156 65.3766 16.2933 65.354H11.1785V54.0813ZM77.9442 76.7329C77.9442 80.9975 75.5728 84.0399 71.6868 84.7839C71.0813 84.8858 70.4672 84.9281 69.8534 84.9101C52.9942 84.9101 36.1351 84.9101 19.2759 84.9101C14.4467 84.9101 11.2449 81.7481 11.2383 76.9388V74.1688H53.0408C54.4502 74.1688 55.8019 73.6089 56.7985 72.6124C57.7951 71.6158 58.3549 70.2641 58.3549 68.8547V51.318C58.3549 49.9086 57.7951 48.5569 56.7985 47.5603C55.8019 46.5637 54.4502 46.0038 53.0408 46.0038H11.2316C11.2316 35.867 11.2316 25.8167 11.2316 13.1092C11.2316 8.27994 14.3803 5.09143 19.2029 5.05821C24.9687 5.01836 30.7412 5.05821 36.5071 5.05821H52.2968V6.50633C52.2968 10.3126 52.2968 14.1189 52.2968 17.9251C52.274 19.5876 52.5798 21.2381 53.1968 22.782C53.8138 24.3259 54.7298 25.7327 55.8921 26.9215C57.0544 28.1103 58.4401 29.0578 59.9696 29.7095C61.4992 30.3612 63.1424 30.7042 64.805 30.7189C68.6909 30.8252 72.5836 30.719 76.4696 30.7522H77.8645C77.8645 31.2703 77.9309 31.6689 77.9309 32.0807C77.9442 50.2684 77.9509 58.4987 77.9442 76.7329ZM23.7664 59.7143C23.7516 58.6656 24.0275 57.6333 24.5636 56.7318C25.091 55.8454 25.8545 55.1232 26.7689 54.646C27.7427 54.1323 28.83 53.8719 29.9308 53.8887C31.0295 53.8719 32.1147 54.1323 33.0861 54.646C33.9965 55.1288 34.7587 55.8497 35.2915 56.7318C35.8295 57.6327 36.1077 58.665 36.0953 59.7143C36.1068 60.7656 35.8288 61.7998 35.2915 62.7035C34.7565 63.5821 33.9946 64.3003 33.0861 64.7827C32.1147 65.2963 31.0295 65.5568 29.9308 65.54C28.83 65.5567 27.7427 65.2963 26.7689 64.7827C25.8564 64.3058 25.0933 63.5863 24.5636 62.7035C24.0283 61.7993 23.7524 60.765 23.7664 59.7143ZM40.4463 61.5809C40.7439 62.1209 41.1883 62.5654 41.7283 62.863C42.3001 63.1752 42.9435 63.3331 43.5949 63.3213C44.1364 63.3288 44.6725 63.213 45.1627 62.9829C45.6529 62.7527 46.0845 62.4142 46.4247 61.9928L48.0986 63.5339C47.5647 64.1872 46.8811 64.7022 46.1058 65.0351C45.2639 65.3839 44.3599 65.558 43.4487 65.5466C42.3634 65.5642 41.2915 65.3059 40.3333 64.796C39.4282 64.3191 38.672 63.602 38.1478 62.7235C37.6102 61.8153 37.3344 60.7762 37.3507 59.721C37.3344 58.6658 37.6102 57.6266 38.1478 56.7185C38.672 55.8399 39.4282 55.1228 40.3333 54.646C41.296 54.1352 42.3724 53.8769 43.462 53.8953C44.3734 53.8817 45.2778 54.0558 46.1191 54.4068C46.891 54.7363 47.5739 55.2439 48.1119 55.8881L46.4379 57.4359C46.0961 57.0163 45.6643 56.6791 45.1745 56.4491C44.6846 56.2191 44.1492 56.1023 43.6081 56.1073C42.9567 56.0955 42.3134 56.2535 41.7416 56.5657C41.2016 56.8633 40.7571 57.3078 40.4595 57.8477C40.1473 58.4196 39.9893 59.0629 40.0012 59.7143C39.9853 60.3646 40.1387 61.0078 40.4463 61.5809Z" fill="url(#paint2_linear_76_731)"/>
<defs>
<linearGradient id="paint0_linear_76_731" x1="27.1982" y1="62.0464" x2="30.7793" y2="56.5522" gradientUnits="userSpaceOnUse">
<stop stop-color="#61ADFF"/>
<stop offset="1" stop-color="#257CDA"/>
</linearGradient>
<linearGradient id="paint1_linear_76_731" x1="14.4688" y1="61.9757" x2="18.088" y2="57.0311" gradientUnits="userSpaceOnUse">
<stop stop-color="#61ADFF"/>
<stop offset="1" stop-color="#257CDA"/>
</linearGradient>
<linearGradient id="paint2_linear_76_731" x1="9.38484" y1="74.087" x2="55.0465" y2="7.96293" gradientUnits="userSpaceOnUse">
<stop stop-color="#61ADFF"/>
<stop offset="1" stop-color="#257CDA"/>
</linearGradient>
</defs>
</svg>
