<svg width="84" height="90" viewBox="0 0 84 90" fill="none" xmlns="http://www.w3.org/2000/svg">
<path d="M25.6079 62.8634C26.157 63.1722 26.778 63.3304 27.408 63.3218C28.0402 63.3312 28.6635 63.1731 29.2148 62.8634C29.7454 62.5603 30.1822 62.1167 30.4769 61.5814C30.7891 61.0095 30.947 60.3662 30.9352 59.7148C30.947 59.0634 30.7891 58.4201 30.4769 57.8482C30.1822 57.3129 29.7454 56.8693 29.2148 56.5662C28.6635 56.2565 28.0402 56.0984 27.408 56.1078C26.778 56.0993 26.157 56.2574 25.6079 56.5662C25.0772 56.8693 24.6405 57.3129 24.3457 57.8482C24.0335 58.4201 23.8755 59.0634 23.8873 59.7148C23.8755 60.3662 24.0335 61.0095 24.3457 61.5814C24.6405 62.1167 25.0772 62.5603 25.6079 62.8634Z" fill="url(#paint0_linear_76_766)"/>
<path d="M83.0336 29.1447C83.0618 28.4969 82.95 27.8507 82.7058 27.25C82.4616 26.6493 82.0909 26.1084 81.6188 25.664C73.4881 17.5865 65.3817 9.4868 57.2998 1.36501C56.8907 0.914516 56.388 0.559152 55.8268 0.323885C55.2656 0.0886191 54.6596 -0.0208263 54.0516 0.00326555C49.6807 0.0696924 45.3098 0.00326555 40.7197 0.00326555H34.1235C29.1282 0.00326555 24.1594 0.00326555 19.1442 0.00326555C11.6579 0.00326555 6.16443 5.47019 6.15778 12.9299C6.15778 25.6972 6.15778 35.7941 6.15778 45.9839H5.31415C3.90475 45.9839 2.55307 46.5438 1.55647 47.5404C0.559878 48.537 0 49.8887 0 51.2981V68.8348C0 70.2442 0.559878 71.5958 1.55647 72.5924C2.55307 73.589 3.90475 74.1489 5.31415 74.1489H6.14448V77.0119C6.14448 84.3521 11.5517 89.9187 18.8852 89.9519C35.9901 90.0316 53.1016 89.9984 70.2065 89.9519C72.2455 89.9951 74.2635 89.5323 76.08 88.605C77.8964 87.6776 79.4548 86.3146 80.6157 84.6377C82.2147 82.4516 83.0629 79.8066 83.0336 77.0983V65.3407C83.0336 49.9562 82.9871 44.5491 83.0336 29.1447ZM57.426 8.80482L74.0327 25.5577C73.7864 25.5968 73.538 25.6212 73.2888 25.6307C70.4657 25.6307 67.6425 25.6706 64.826 25.6307C62.9011 25.6249 61.0534 24.8726 59.6719 23.532C58.2905 22.1915 57.483 20.3673 57.4193 18.4434C57.3396 15.3213 57.4193 12.1727 57.4193 8.80482H57.426ZM8.63549 65.3474V54.0548H13.7503C14.8678 54.0218 15.9776 54.2492 16.992 54.7191C17.898 55.1603 18.6588 55.8518 19.1841 56.7119C19.7171 57.6068 19.9887 58.6331 19.968 59.6745C19.9887 60.7159 19.7171 61.7423 19.1841 62.6371C18.6588 63.4972 17.898 64.1888 16.992 64.63C15.9803 65.1112 14.8704 65.35 13.7503 65.3274L8.63549 65.3474ZM77.9187 76.7329C77.9187 80.9975 75.5538 84.0399 71.6612 84.7839C71.0579 84.8859 70.4461 84.9282 69.8345 84.9101C52.9665 84.9101 36.1052 84.9101 19.2505 84.9101C14.4279 84.9101 11.2195 81.7481 11.2195 76.9388V74.1688H59.2461C60.6555 74.1688 62.0072 73.609 63.0038 72.6124C64.0004 71.6158 64.5602 70.2641 64.5602 68.8547V51.318C64.5602 49.9086 64.0004 48.5569 63.0038 47.5603C62.0072 46.5637 60.6555 46.0039 59.2461 46.0039H11.2062C11.2062 35.8671 11.2062 25.8167 11.2062 13.1093C11.2062 8.28006 14.3548 5.09155 19.1774 5.05834C24.9499 5.01848 30.7158 5.05834 36.4883 5.05834H52.2779V6.50646C52.2779 10.3127 52.2779 14.119 52.2779 17.9252C52.2551 19.5877 52.561 21.2382 53.178 22.7821C53.795 24.326 54.7109 25.7328 55.8732 26.9216C57.0354 28.1104 58.4212 29.0579 59.9507 29.7096C61.4803 30.3613 63.1236 30.7043 64.7861 30.719C68.6721 30.8253 72.5581 30.719 76.4441 30.7523H77.8389C77.8722 31.2704 77.9054 31.669 77.9054 32.0808C77.9519 50.2685 77.9586 58.4987 77.9453 76.7329H77.9187ZM21.2566 59.7144C21.2395 58.6662 21.513 57.6339 22.047 56.7318C22.5764 55.847 23.3395 55.1252 24.2525 54.646C25.2265 54.1332 26.3137 53.8728 27.4144 53.8887C28.5133 53.8702 29.5989 54.1307 30.5697 54.646C31.4826 55.1252 32.2457 55.847 32.775 56.7318C33.3162 57.6314 33.5947 58.6646 33.5788 59.7144C33.5939 60.7661 33.3155 61.8012 32.775 62.7036C32.2436 63.5851 31.4809 64.3042 30.5697 64.7827C29.5989 65.298 28.5133 65.5585 27.4144 65.54C26.3137 65.5559 25.2265 65.2956 24.2525 64.7827C23.3412 64.3042 22.5784 63.5851 22.047 62.7036C21.5138 61.7988 21.2403 60.7645 21.2566 59.7144ZM37.9364 61.581C38.234 62.1209 38.6785 62.5654 39.2184 62.863C39.7903 63.1752 40.4336 63.3332 41.085 63.3213C41.6264 63.3278 42.1621 63.2116 42.6522 62.9815C43.1422 62.7515 43.574 62.4135 43.9149 61.9928L45.5887 63.5339C45.0548 64.1872 44.3712 64.7022 43.5959 65.0351C42.754 65.384 41.8501 65.558 40.9389 65.5466C39.8536 65.5642 38.7816 65.306 37.8234 64.796C36.9163 64.3196 36.1579 63.6025 35.6314 62.7235C35.0957 61.8148 34.8221 60.7756 34.8409 59.721C34.8221 58.6664 35.0957 57.6272 35.6314 56.7185C36.1579 55.8395 36.9163 55.1225 37.8234 54.646C38.7861 54.1352 39.8626 53.877 40.9522 53.8954C41.8636 53.8818 42.7679 54.0559 43.6092 54.4069C44.3811 54.7363 45.064 55.244 45.602 55.8882L43.928 57.4359C43.5859 57.0167 43.1541 56.6798 42.6643 56.4498C42.1746 56.2199 41.6393 56.1028 41.0983 56.1074C40.4469 56.0956 39.8036 56.2535 39.2317 56.5657C38.6918 56.8633 38.2473 57.3078 37.9497 57.8478C37.6375 58.4196 37.4795 59.0629 37.4913 59.7144C37.4733 60.364 37.6244 61.0072 37.9297 61.581H37.9364ZM46.0405 54.0814H49.0031L51.5937 57.7348L54.1379 54.0814H56.9544L53.022 59.5217L57.2267 65.3474H54.2177L51.4941 61.4348L48.837 65.3474H45.8345L50.0062 59.6147L46.0405 54.0814Z" fill="url(#paint1_linear_76_766)"/>
<path d="M17.3511 59.714C17.375 59.2419 17.2979 58.7702 17.1249 58.3303C16.952 57.8904 16.6871 57.4925 16.348 57.1632C15.6075 56.5074 14.639 56.1686 13.6512 56.2199H11.293V63.208H13.6777C14.6655 63.2593 15.6341 62.9206 16.3746 62.2648C16.7089 61.9331 16.9688 61.5342 17.1372 61.0944C17.3055 60.6546 17.3785 60.1841 17.3511 59.714Z" fill="url(#paint2_linear_76_766)"/>
<defs>
<linearGradient id="paint0_linear_76_766" x1="24.6816" y1="62.0465" x2="28.2628" y2="56.5522" gradientUnits="userSpaceOnUse">
<stop stop-color="#FFD209"/>
<stop offset="1" stop-color="#D77400"/>
</linearGradient>
<linearGradient id="paint1_linear_76_766" x1="9.36384" y1="74.087" x2="55.0179" y2="7.94294" gradientUnits="userSpaceOnUse">
<stop stop-color="#FFD209"/>
<stop offset="1" stop-color="#D77400"/>
</linearGradient>
<linearGradient id="paint2_linear_76_766" x1="11.9768" y1="61.9757" x2="15.6004" y2="57.0455" gradientUnits="userSpaceOnUse">
<stop stop-color="#FFD209"/>
<stop offset="1" stop-color="#D77400"/>
</linearGradient>
</defs>
</svg>
