<svg width="60" height="60" viewBox="0 0 60 60" fill="none" xmlns="http://www.w3.org/2000/svg">
<path d="M60 30C60 46.5685 46.5685 60 30 60C13.4315 60 0 46.5685 0 30C0 13.4315 13.4315 0 30 0C46.5685 0 60 13.4315 60 30Z" fill="url(#paint0_linear_19_3400)"/>
<path d="M40.3267 23.9077L40.0139 25.883L40.3267 23.9077ZM34.0923 17.6733L32.117 17.9861V17.9861L34.0923 17.6733ZM19.0916 43.5676L20.2672 41.9496L19.0916 43.5676ZM17.4324 41.9084L19.0504 40.7328L17.4324 41.9084ZM41.5676 41.9084L39.9496 40.7328L41.5676 41.9084ZM39.9084 43.5676L38.7328 41.9496L39.9084 43.5676ZM39.9084 16.4324L41.084 14.8143L39.9084 16.4324ZM41.5676 18.0916L43.1857 16.916L41.5676 18.0916ZM19.0916 16.4324L20.2672 18.0504L19.0916 16.4324ZM17.4324 18.0916L19.0504 19.2672L17.4324 18.0916ZM34 15.0434L34.0685 13.0446L34 15.0434ZM42.9566 24L44.9554 23.9315L42.9566 24ZM23.5 34C22.3954 34 21.5 34.8954 21.5 36C21.5 37.1046 22.3954 38 23.5 38V34ZM28 38C29.1046 38 30 37.1046 30 36C30 34.8954 29.1046 34 28 34V38ZM23.5 28C22.3954 28 21.5 28.8954 21.5 30C21.5 31.1046 22.3954 32 23.5 32V28ZM35.5 32C36.6046 32 37.5 31.1046 37.5 30C37.5 28.8954 36.6046 28 35.5 28V32ZM23.5 22C22.3954 22 21.5 22.8954 21.5 24C21.5 25.1046 22.3954 26 23.5 26V22ZM28 26C29.1046 26 30 25.1046 30 24C30 22.8954 29.1046 22 28 22V26ZM40.6396 21.9323C38.2862 21.5595 36.4405 19.7138 36.0677 17.3604L32.117 17.9861C32.7608 22.0511 35.9489 25.2392 40.0139 25.883L40.6396 21.9323ZM41 28.5V31.5H45V28.5H41ZM18 31.5V28.5H14V31.5H18ZM29.5 43C26.6432 43 24.6612 42.9973 23.1413 42.8326C21.6589 42.672 20.8552 42.3768 20.2672 41.9496L17.916 45.1857C19.2995 46.1908 20.8877 46.6118 22.7105 46.8093C24.4958 47.0027 26.7323 47 29.5 47V43ZM14 31.5C14 34.2677 13.9973 36.5042 14.1907 38.2895C14.3882 40.1123 14.8092 41.7005 15.8143 43.084L19.0504 40.7328C18.6232 40.1448 18.328 39.3411 18.1674 37.8587C18.0027 36.3388 18 34.3568 18 31.5H14ZM20.2672 41.9496C19.8003 41.6104 19.3896 41.1997 19.0504 40.7328L15.8143 43.084C16.4003 43.8905 17.1095 44.5997 17.916 45.1857L20.2672 41.9496ZM41 31.5C41 34.3568 40.9973 36.3388 40.8326 37.8587C40.672 39.3411 40.3768 40.1448 39.9496 40.7328L43.1857 43.084C44.1908 41.7005 44.6118 40.1123 44.8093 38.2895C45.0027 36.5042 45 34.2677 45 31.5H41ZM29.5 47C32.2677 47 34.5042 47.0027 36.2895 46.8093C38.1123 46.6118 39.7005 46.1908 41.084 45.1857L38.7328 41.9496C38.1448 42.3768 37.3411 42.672 35.8587 42.8326C34.3388 42.9973 32.3568 43 29.5 43V47ZM39.9496 40.7328C39.6104 41.1997 39.1997 41.6104 38.7328 41.9496L41.084 45.1857C41.8905 44.5997 42.5997 43.8905 43.1857 43.084L39.9496 40.7328ZM38.7328 18.0504C39.1997 18.3896 39.6104 18.8003 39.9496 19.2672L43.1857 16.916C42.5997 16.1095 41.8905 15.4003 41.084 14.8143L38.7328 18.0504ZM29.5 13C26.7323 13 24.4958 12.9973 22.7105 13.1907C20.8877 13.3882 19.2995 13.8092 17.916 14.8143L20.2672 18.0504C20.8552 17.6232 21.6589 17.328 23.1413 17.1674C24.6612 17.0027 26.6432 17 29.5 17V13ZM18 28.5C18 25.6432 18.0027 23.6612 18.1674 22.1413C18.328 20.6589 18.6232 19.8552 19.0504 19.2672L15.8143 16.916C14.8092 18.2995 14.3882 19.8877 14.1907 21.7105C13.9973 23.4958 14 25.7323 14 28.5H18ZM17.916 14.8143C17.1095 15.4003 16.4003 16.1095 15.8143 16.916L19.0504 19.2672C19.3896 18.8003 19.8003 18.3896 20.2672 18.0504L17.916 14.8143ZM29.5 17C31.2645 17 32.7065 17.0003 33.9315 17.0422L34.0685 13.0446C32.7604 12.9997 31.2423 13 29.5 13V17ZM33.9315 17.0422C36.7031 17.1372 37.9067 17.4502 38.7328 18.0504L41.084 14.8143C39.1962 13.4428 36.8895 13.1412 34.0685 13.0446L33.9315 17.0422ZM32 15.0434C32 16.3347 31.9949 17.2152 32.117 17.9861L36.0677 17.3604C36.0071 16.9775 36 16.4813 36 15.0434L32 15.0434ZM45 28.5C45 26.7577 45.0002 25.2396 44.9554 23.9315L40.9578 24.0685C40.9997 25.2935 41 26.7355 41 28.5H45ZM44.9554 23.9315C44.8588 21.1105 44.5572 18.8038 43.1857 16.916L39.9496 19.2672C40.5498 20.0933 40.8628 21.2969 40.9578 24.0685L44.9554 23.9315ZM42.9566 22C41.5187 22 41.0225 21.9929 40.6396 21.9323L40.0139 25.883C40.7848 26.0051 41.6653 26 42.9566 26L42.9566 22ZM23.5 38H28V34H23.5V38ZM23.5 32H35.5V28H23.5V32ZM23.5 26H28V22H23.5V26Z" fill="#FAFAFA"/>
<defs>
<linearGradient id="paint0_linear_19_3400" x1="6.76596" y1="49.3913" x2="36.2632" y2="3.07233" gradientUnits="userSpaceOnUse">
<stop stop-color="#78B3E2"/>
<stop offset="1" stop-color="#398ACB"/>
</linearGradient>
</defs>
</svg>
