<svg width="522" height="94" viewBox="0 0 522 94" fill="none" xmlns="http://www.w3.org/2000/svg">
<path d="M126.96 12.7952L120.54 18.7452C118.076 16.5203 114.86 15.3125 111.54 15.3652C105.47 15.3652 100.69 19.8552 100.69 26.8552C100.69 33.8552 105.47 38.2852 111.54 38.2852C113.427 38.2967 115.293 37.8975 117.01 37.1152V31.5152H111.53V24.0452H126.93V40.9052C124.968 43.0341 122.588 44.7345 119.937 45.8996C117.287 47.0646 114.425 47.6691 111.53 47.6752C106.008 47.6752 100.713 45.4816 96.808 41.5771C92.9035 37.6726 90.71 32.377 90.71 26.8552C90.71 21.3333 92.9035 16.0377 96.808 12.1332C100.713 8.22869 106.008 6.03516 111.53 6.03516C114.429 6.03577 117.297 6.63672 119.953 7.80015C122.608 8.96357 124.994 10.6643 126.96 12.7952Z" fill="black"/>
<path d="M170.35 22.067V31.457H153.9V37.817H171.9V47.197H144.01V6.37695H171.94V15.707H153.94V22.067H170.35Z" fill="black"/>
<path d="M203.47 47.197H193.56V15.707H183.12V6.37695H213.91V15.707H203.47V47.197Z" fill="black"/>
<path d="M322.91 47.197L306.01 24.747V47.197H296.1V6.37695H302.01L318.92 28.827V6.37695H328.83V47.197H322.91Z" fill="black"/>
<path d="M372.25 22.067V31.457H355.8V37.817H373.8V47.197H345.89V6.37695H373.82V15.707H355.82V22.067H372.25Z" fill="black"/>
<path d="M402.869 6.37695C414.869 6.37695 420.599 13.787 420.599 22.177C420.687 24.8457 419.972 27.4793 418.545 29.7366C417.119 31.9939 415.047 33.7707 412.599 34.837C414.169 36.057 415.809 38.277 418.369 42.187L421.579 47.187H410.449L408.179 43.687C405.179 39.077 404.679 38.087 400.889 37.967H398.439V47.197H388.529V6.37695H402.869ZM398.439 28.597H403.799C408.059 28.597 411.209 26.597 411.209 22.177C411.209 17.977 408.059 15.707 403.799 15.707H398.439V28.597Z" fill="black"/>
<path d="M469.01 12.7961L462.59 18.7461C460.125 16.5213 456.909 15.3135 453.59 15.3661C447.53 15.3661 442.74 19.8561 442.74 26.8561C442.74 33.8561 447.52 38.2861 453.59 38.2861C455.48 38.2991 457.35 37.8998 459.07 37.1161V31.5161H453.61V24.0461H469.01V40.9061C467.048 43.0351 464.667 44.7355 462.017 45.9005C459.367 47.0656 456.504 47.6701 453.61 47.6761C448.082 47.6761 442.782 45.4805 438.873 41.5722C434.965 37.6639 432.77 32.3632 432.77 26.8361C432.77 21.309 434.965 16.0082 438.873 12.1C442.782 8.19173 448.082 5.99609 453.61 5.99609C456.507 6.00594 459.37 6.61515 462.021 7.78541C464.671 8.95567 467.051 10.6617 469.01 12.7961Z" fill="black"/>
<path d="M493.67 47.197V33.727L479.67 6.37695H490.93L498.63 21.377L506.39 6.37695H517.65L503.59 33.727V47.197H493.67Z" fill="black"/>
<path d="M100.19 88.4167V80.5867L96.4699 84.8667L92.7499 80.5867V88.4267H89.3799V75.1367H91.5599L96.4799 80.8267L101.4 75.1367H103.58V88.4167H100.19Z" fill="black"/>
<path d="M123.6 81.7762C123.608 83.1263 123.215 84.4484 122.471 85.5749C121.727 86.7015 120.665 87.5819 119.42 88.1045C118.175 88.6271 116.803 88.7685 115.478 88.5107C114.152 88.2529 112.933 87.6075 111.975 86.6563C111.017 85.7051 110.363 84.4909 110.095 83.1676C109.828 81.8442 109.959 80.4712 110.472 79.2225C110.986 77.9738 111.858 76.9056 112.979 76.1532C114.101 75.4009 115.42 74.9982 116.77 74.9962C117.664 74.9922 118.55 75.1645 119.377 75.5032C120.204 75.842 120.956 76.3404 121.591 76.9701C122.225 77.5998 122.729 78.3485 123.074 79.1731C123.418 79.9978 123.597 80.8823 123.6 81.7762ZM113.34 81.7762C113.34 82.6859 113.701 83.5583 114.344 84.2015C114.988 84.8448 115.86 85.2062 116.77 85.2062C117.68 85.2062 118.552 84.8448 119.195 84.2015C119.838 83.5583 120.2 82.6859 120.2 81.7762C120.2 80.8665 119.838 79.994 119.195 79.3508C118.552 78.7075 117.68 78.3462 116.77 78.3462C115.86 78.3462 114.988 78.7075 114.344 79.3508C113.701 79.994 113.34 80.8665 113.34 81.7762Z" fill="black"/>
<path d="M142.44 69.8164C142.44 72.3364 141.24 73.8164 137.44 73.8164H136.59C134.09 73.8164 132.52 74.9864 132.52 77.1364V77.7164C132.958 77.0414 133.563 76.4908 134.276 76.1177C134.989 75.7446 135.786 75.5616 136.59 75.5864C137.416 75.5476 138.24 75.6821 139.011 75.9814C139.782 76.2807 140.481 76.738 141.064 77.3239C141.647 77.9099 142.101 78.6115 142.397 79.3835C142.692 80.1555 142.823 80.9809 142.78 81.8064C142.813 82.7072 142.661 83.6051 142.333 84.4448C142.006 85.2845 141.509 86.048 140.875 86.6882C140.24 87.3284 139.481 87.8316 138.644 88.1667C137.808 88.5018 136.911 88.6616 136.01 88.6364C132.18 88.6364 129.21 85.8764 129.21 81.4864V78.2964C129.21 73.6164 131.97 70.9364 136.92 70.9364C138.65 70.9364 139.1 70.6664 139.1 69.8164H142.44ZM132.55 81.9964C132.55 82.9061 132.911 83.7785 133.555 84.4218C134.198 85.065 135.07 85.4264 135.98 85.4264C136.89 85.4264 137.762 85.065 138.405 84.4218C139.049 83.7785 139.41 82.9061 139.41 81.9964C139.41 81.0867 139.049 80.2143 138.405 79.571C137.762 78.9278 136.89 78.5664 135.98 78.5664C135.07 78.5664 134.198 78.9278 133.555 79.571C132.911 80.2143 132.55 81.0867 132.55 81.9964Z" fill="black"/>
<path d="M158.169 88.4167V80.5867L151.369 88.4267H149.189V75.1367H152.559V82.9967L159.359 75.1567H161.539V88.4167H158.169Z" fill="black"/>
<path d="M170.92 88.417H167.33L173.47 75.127H175.65L181.79 88.417H178.23L174.56 80.097L170.92 88.417Z" fill="black"/>
<path d="M194.01 78.9967C198.66 78.9967 199.59 81.7567 199.59 83.7267C199.59 85.6967 198.66 88.4567 194.01 88.4567H187.55V75.1367H190.92V78.9967H194.01ZM194.38 85.2967C195.81 85.2967 196.21 84.5767 196.21 83.7267C196.21 82.8767 195.81 82.1567 194.38 82.1567H190.93V85.2967H194.38Z" fill="black"/>
<path d="M215.01 88.4167V83.3167H209.22V88.4167H205.85V75.1367H209.22V80.0567H215.01V75.1367H218.38V88.4167H215.01Z" fill="black"/>
<path d="M235.91 88.4168L235.72 86.5268C235.183 87.1711 234.508 87.6857 233.744 88.0321C232.98 88.3784 232.148 88.5476 231.31 88.5268C229.548 88.4593 227.88 87.7117 226.657 86.441C225.434 85.1704 224.751 83.4753 224.751 81.7118C224.751 79.9482 225.434 78.2532 226.657 76.9825C227.88 75.7119 229.548 74.9643 231.31 74.8968C232.158 74.888 232.996 75.0725 233.762 75.4364C234.528 75.8003 235.201 76.3339 235.73 76.9968L235.92 75.1068H238.18V88.4168H235.91ZM235.06 81.7768C235.06 80.8671 234.699 79.9947 234.055 79.3514C233.412 78.7082 232.54 78.3468 231.63 78.3468C230.72 78.3468 229.848 78.7082 229.204 79.3514C228.561 79.9947 228.2 80.8671 228.2 81.7768C228.2 82.6865 228.561 83.5589 229.204 84.2022C229.848 84.8454 230.72 85.2068 231.63 85.2068C232.54 85.2068 233.412 84.8454 234.055 84.2022C234.699 83.5589 235.06 82.6865 235.06 81.7768Z" fill="black"/>
<path d="M253.21 88.416V84.566H251.83C250.71 84.566 250.29 85.046 249.47 86.236L248.01 88.416H244.31L246.01 85.866C246.379 85.1942 246.863 84.5919 247.44 84.086C246.596 83.8081 245.86 83.2727 245.337 82.5553C244.813 81.8378 244.527 80.9743 244.52 80.086C244.52 77.856 245.8 75.166 250.34 75.166H256.58V88.416H253.21ZM249.97 78.416C248.56 78.416 247.9 79.056 247.9 80.066C247.9 81.076 248.56 81.736 249.97 81.736H253.21V78.406L249.97 78.416Z" fill="black"/>
<path d="M285.89 81.7765C285.88 83.1663 285.445 84.5198 284.643 85.6553C283.842 86.7907 282.712 87.6536 281.405 88.1283C280.099 88.6029 278.679 88.6664 277.335 88.3104C275.992 87.9544 274.789 87.1958 273.89 86.1365L275.89 83.9565C276.304 84.3921 276.804 84.7377 277.358 84.9716C277.912 85.2056 278.508 85.323 279.11 85.3165C279.841 85.3208 280.553 85.0799 281.131 84.6321C281.709 84.1844 282.121 83.5557 282.3 82.8465H278.18V80.7165H282.3C282.121 80.0074 281.709 79.3787 281.131 78.9309C280.553 78.4832 279.841 78.2422 279.11 78.2465C278.508 78.24 277.912 78.3574 277.358 78.5914C276.804 78.8254 276.304 79.1709 275.89 79.6065L273.89 77.4265C274.789 76.3672 275.992 75.6087 277.335 75.2526C278.679 74.8966 280.099 74.9602 281.405 75.4348C282.712 75.9094 283.842 76.7724 284.643 77.9078C285.445 79.0432 285.88 80.3967 285.89 81.7865V81.7765Z" fill="black"/>
<path d="M301.46 88.4167V83.3167H295.67V88.4167H292.3V75.1367H295.67V80.0567H301.46V75.1367H304.83V88.4167H301.46Z" fill="black"/>
<path d="M323.779 78.5359C324.309 79.8644 324.383 81.331 323.989 82.7059H314.719C314.719 84.5159 316.209 85.4959 318.009 85.4959C319.397 85.4983 320.766 85.1801 322.009 84.5659L323.789 86.5059C322.134 87.7966 320.108 88.5221 318.009 88.5759C316.318 88.4271 314.742 87.6523 313.591 86.4033C312.441 85.1542 311.797 83.5207 311.787 81.8224C311.777 80.124 312.401 78.483 313.537 77.2205C314.673 75.958 316.239 75.1647 317.929 74.9959C319.149 74.9201 320.363 75.2185 321.408 75.8511C322.453 76.4837 323.281 77.4204 323.779 78.5359ZM314.849 80.5359H320.939C320.932 80.1599 320.821 79.7932 320.619 79.4759C320.346 79.0098 319.952 78.6263 319.478 78.3657C319.005 78.1052 318.47 77.9775 317.929 77.9959C317.182 77.9503 316.445 78.1936 315.872 78.6756C315.299 79.1577 314.933 79.8416 314.849 80.5859V80.5359Z" fill="black"/>
<path d="M344.659 81.7753C344.701 82.6522 344.565 83.5285 344.26 84.3517C343.955 85.1749 343.487 85.9279 342.884 86.5658C342.28 87.2036 341.554 87.713 340.75 88.0634C339.945 88.4139 339.077 88.5982 338.199 88.6053C337.543 88.6117 336.893 88.4827 336.289 88.2263C335.685 87.9699 335.14 87.5917 334.689 87.1153V93.3053H331.319V75.1353H333.579L333.769 77.0253C334.312 76.3797 334.992 75.8647 335.761 75.5184C336.53 75.1722 337.367 75.0036 338.209 75.0253C339.08 75.0313 339.941 75.2123 340.74 75.5575C341.54 75.9026 342.262 76.4049 342.864 77.0346C343.465 77.6642 343.934 78.4083 344.243 79.2227C344.551 80.037 344.693 80.9051 344.659 81.7753ZM334.429 81.7753C334.429 82.685 334.791 83.5574 335.434 84.2007C336.077 84.8439 336.95 85.2053 337.859 85.2053C338.769 85.2053 339.641 84.8439 340.285 84.2007C340.928 83.5574 341.289 82.685 341.289 81.7753C341.289 80.8656 340.928 79.9932 340.285 79.3499C339.641 78.7067 338.769 78.3453 337.859 78.3453C336.95 78.3453 336.077 78.7067 335.434 79.3499C334.791 79.9932 334.429 80.8656 334.429 81.7753Z" fill="black"/>
<path d="M354.439 88.4167H351.069V75.1367H361.069V78.4067H354.479L354.439 88.4167Z" fill="black"/>
<path d="M375.91 88.4167V80.5867L369.11 88.4267H366.93V75.1367H370.3V82.9967L377.1 75.1567H379.28V88.4167H375.91Z" fill="black"/>
<path d="M394.3 88.416V84.566H392.91C391.79 84.566 391.37 85.046 390.55 86.236L389.06 88.416H385.39L387.09 85.866C387.459 85.1942 387.943 84.5919 388.52 84.086C387.676 83.8081 386.941 83.2727 386.417 82.5553C385.893 81.8378 385.607 80.9743 385.6 80.086C385.6 77.856 386.88 75.166 391.42 75.166H397.66V88.416H394.3ZM391.06 78.416C389.65 78.416 388.99 79.056 388.99 80.066C388.99 81.076 389.65 81.736 391.06 81.736H394.3V78.406L391.06 78.416Z" fill="black"/>
<path d="M419.25 88.4167H415.88V75.1367H425.88V78.4067H419.29L419.25 88.4167Z" fill="black"/>
<path d="M444.43 81.7761C444.438 83.1267 444.045 84.4492 443.3 85.5759C442.555 86.7027 441.493 87.5831 440.248 88.1054C439.002 88.6278 437.63 88.7685 436.304 88.5099C434.979 88.2513 433.76 87.6049 432.802 86.6528C431.844 85.7006 431.19 84.4855 430.924 83.1614C430.658 81.8374 430.79 80.4641 431.305 79.2155C431.82 77.967 432.694 76.8995 433.817 76.1483C434.939 75.3972 436.259 74.9961 437.61 74.9961C438.503 74.9935 439.388 75.1668 440.214 75.5061C441.04 75.8454 441.791 76.3441 442.424 76.9736C443.057 77.6032 443.561 78.3514 443.905 79.1754C444.249 79.9994 444.427 80.8831 444.43 81.7761ZM434.17 81.7761C434.17 82.2266 434.259 82.6726 434.431 83.0887C434.603 83.5049 434.856 83.883 435.175 84.2015C435.493 84.52 435.871 84.7727 436.287 84.945C436.703 85.1174 437.149 85.2061 437.6 85.2061C438.05 85.2061 438.496 85.1174 438.913 84.945C439.329 84.7727 439.707 84.52 440.025 84.2015C440.344 83.883 440.596 83.5049 440.769 83.0887C440.941 82.6726 441.03 82.2266 441.03 81.7761C441.03 81.3257 440.941 80.8797 440.769 80.4635C440.596 80.0474 440.344 79.6693 440.025 79.3507C439.707 79.0322 439.329 78.7796 438.913 78.6072C438.496 78.4348 438.05 78.3461 437.6 78.3461C437.149 78.3461 436.703 78.4348 436.287 78.6072C435.871 78.7796 435.493 79.0322 435.175 79.3507C434.856 79.6693 434.603 80.0474 434.431 80.4635C434.259 80.8797 434.17 81.3257 434.17 81.7761Z" fill="black"/>
<path d="M464.1 81.7753C464.142 82.6522 464.006 83.5285 463.701 84.3517C463.396 85.1749 462.927 85.9279 462.324 86.5658C461.721 87.2036 460.995 87.713 460.19 88.0634C459.385 88.4139 458.518 88.5982 457.64 88.6053C456.984 88.6117 456.333 88.4827 455.729 88.2263C455.125 87.9699 454.581 87.5917 454.13 87.1153V93.3053H450.76V75.1353H453.01L453.2 77.0253C453.742 76.3797 454.423 75.8647 455.191 75.5184C455.96 75.1722 456.797 75.0036 457.64 75.0253C458.511 75.03 459.373 75.21 460.174 75.5546C460.975 75.8991 461.698 76.4012 462.301 77.031C462.903 77.6607 463.373 78.4053 463.682 79.2203C463.991 80.0354 464.133 80.9043 464.1 81.7753ZM453.87 81.7753C453.87 82.685 454.231 83.5574 454.874 84.2007C455.518 84.8439 456.39 85.2053 457.3 85.2053C458.209 85.2053 459.082 84.8439 459.725 84.2007C460.368 83.5574 460.73 82.685 460.73 81.7753C460.73 80.8656 460.368 79.9932 459.725 79.3499C459.082 78.7067 458.209 78.3453 457.3 78.3453C456.39 78.3453 455.518 78.7067 454.874 79.3499C454.231 79.9932 453.87 80.8656 453.87 81.7753Z" fill="black"/>
<path d="M483.329 81.7762C483.337 83.1263 482.944 84.4484 482.2 85.5749C481.456 86.7015 480.394 87.5819 479.149 88.1045C477.904 88.6271 476.532 88.7685 475.207 88.5107C473.882 88.2529 472.663 87.6075 471.705 86.6563C470.747 85.7051 470.092 84.4909 469.825 83.1676C469.557 81.8442 469.688 80.4712 470.202 79.2225C470.715 77.9738 471.588 76.9056 472.709 76.1532C473.83 75.4009 475.149 74.9982 476.499 74.9962C477.393 74.9922 478.279 75.1645 479.106 75.5032C479.933 75.842 480.686 76.3404 481.32 76.9701C481.954 77.5998 482.458 78.3485 482.803 79.1731C483.148 79.9978 483.327 80.8823 483.329 81.7762ZM473.069 81.7762C473.069 82.6859 473.431 83.5583 474.074 84.2015C474.717 84.8448 475.59 85.2062 476.499 85.2062C477.409 85.2062 478.281 84.8448 478.925 84.2015C479.568 83.5583 479.929 82.6859 479.929 81.7762C479.929 80.8665 479.568 79.994 478.925 79.3508C478.281 78.7075 477.409 78.3462 476.499 78.3462C475.59 78.3462 474.717 78.7075 474.074 79.3508C473.431 79.994 473.069 80.8665 473.069 81.7762Z" fill="black"/>
<path d="M500.31 90.8962V88.4162H491.57V90.8962H488.2V85.1562H490.2L494.82 75.1562H497.01L501.63 85.1562H503.63V90.8962H500.31ZM493.67 85.1562H498.19L495.93 80.1562L493.67 85.1562Z" fill="black"/>
<path d="M519.259 88.4167L519.069 86.5267C518.533 87.171 517.857 87.6856 517.094 88.032C516.33 88.3783 515.498 88.5475 514.66 88.5267C512.897 88.4592 511.23 87.7116 510.007 86.4409C508.784 85.1703 508.101 83.4753 508.101 81.7117C508.101 79.9481 508.784 78.2531 510.007 76.9824C511.23 75.7118 512.897 74.9642 514.66 74.8967C515.506 74.8894 516.342 75.0747 517.106 75.4385C517.87 75.8023 518.542 76.3352 519.069 76.9967L519.259 75.1067H521.52V88.4167H519.259ZM518.41 81.7767C518.41 80.867 518.048 79.9946 517.405 79.3513C516.762 78.7081 515.889 78.3467 514.979 78.3467C514.07 78.3467 513.197 78.7081 512.554 79.3513C511.911 79.9946 511.549 80.867 511.549 81.7767C511.549 82.6864 511.911 83.5588 512.554 84.2021C513.197 84.8453 514.07 85.2067 514.979 85.2067C515.889 85.2067 516.762 84.8453 517.405 84.2021C518.048 83.5588 518.41 82.6864 518.41 81.7767Z" fill="black"/>
<path d="M281.97 38.0254H254.04V47.2054H281.97V38.0254Z" fill="black"/>
<path d="M280.4 22.1562H254.04V31.3762H280.4V22.1562Z" fill="#33CC33"/>
<path d="M281.97 6.37695H254.04V15.507H281.97V6.37695Z" fill="black"/>
<path d="M41.8495 25.9863H28.3595C27.6195 25.9863 27.0195 26.5863 27.0195 27.3263V28.9863C27.0195 29.7264 27.6195 30.3263 28.3595 30.3263H41.8495C42.5896 30.3263 43.1895 29.7264 43.1895 28.9863V27.3263C43.1895 26.5863 42.5896 25.9863 41.8495 25.9863Z" fill="#33CC33"/>
<path d="M41.8495 33.7754H28.3595C27.6195 33.7754 27.0195 34.3753 27.0195 35.1154V36.7754C27.0195 37.5155 27.6195 38.1154 28.3595 38.1154H41.8495C42.5896 38.1154 43.1895 37.5155 43.1895 36.7754V35.1154C43.1895 34.3753 42.5896 33.7754 41.8495 33.7754Z" fill="#33CC33"/>
<path d="M41.8495 41.4668H28.3595C27.6195 41.4668 27.0195 42.0667 27.0195 42.8068V44.4668C27.0195 45.2069 27.6195 45.8068 28.3595 45.8068H41.8495C42.5896 45.8068 43.1895 45.2069 43.1895 44.4668V42.8068C43.1895 42.0667 42.5896 41.4668 41.8495 41.4668Z" fill="#33CC33"/>
<path d="M41.8495 49.3555H28.3595C27.6195 49.3555 27.0195 49.9554 27.0195 50.6955V52.3555C27.0195 53.0955 27.6195 53.6955 28.3595 53.6955H41.8495C42.5896 53.6955 43.1895 53.0955 43.1895 52.3555V50.6955C43.1895 49.9554 42.5896 49.3555 41.8495 49.3555Z" fill="#33CC33"/>
<path fill-rule="evenodd" clip-rule="evenodd" d="M70.2 35.0971C70.1996 30.1697 69.1618 25.2977 67.154 20.7979C65.1463 16.2982 62.2137 12.2715 58.5469 8.98006C54.8802 5.68857 50.5616 3.20598 45.872 1.6938C41.1824 0.181628 36.227 -0.326238 31.3282 0.203249C26.4294 0.732736 21.6969 2.28771 17.4388 4.767C13.1806 7.24628 9.49218 10.5943 6.61344 14.5933C3.7347 18.5922 1.73017 23.1525 0.730287 27.9773C-0.269599 32.8021 -0.242439 37.7834 0.81 42.5971C4.81 62.0971 28.08 84.7571 33.64 89.5971C33.8183 89.8129 34.042 89.9867 34.2953 90.106C34.5485 90.2253 34.825 90.2872 35.105 90.2872C35.385 90.2872 35.6614 90.2253 35.9147 90.106C36.168 89.9867 36.3917 89.8129 36.57 89.5971C37.48 90.3071 63.78 64.0771 69.43 42.4271C69.9422 40.0174 70.2003 37.5606 70.2 35.0971ZM34.01 59.4671C28.8827 59.1893 24.0015 57.1791 20.1656 53.7655C16.3297 50.352 13.7663 45.7373 12.8951 40.6769C12.0238 35.6165 12.8963 30.4102 15.3696 25.9104C17.843 21.4105 21.7708 17.8836 26.51 15.9071C26.6601 15.8472 26.7889 15.7438 26.8798 15.6101C26.9707 15.4765 27.0195 15.3187 27.02 15.1571V14.1571C27.0226 13.8025 27.1646 13.4632 27.4154 13.2124C27.6661 12.9617 28.0054 12.8197 28.36 12.8171H41.85C42.2046 12.8197 42.5439 12.9617 42.7946 13.2124C43.0454 13.4632 43.1874 13.8025 43.19 14.1571V14.9971C43.1913 15.1599 43.2416 15.3185 43.3343 15.4523C43.4271 15.5861 43.558 15.6888 43.71 15.7471C48.7329 17.7255 52.885 21.4315 55.4191 26.1983C57.9532 30.9651 58.7031 36.4798 57.5338 41.7501C56.3644 47.0205 53.3527 51.7006 49.0404 54.9484C44.7281 58.1962 39.3983 59.7985 34.01 59.4671Z" fill="black"/>
<path d="M41.8495 18.8867H28.3595C27.6195 18.8867 27.0195 19.4867 27.0195 20.2267V21.8867C27.0195 22.6268 27.6195 23.2267 28.3595 23.2267H41.8495C42.5896 23.2267 43.1895 22.6268 43.1895 21.8867V20.2267C43.1895 19.4867 42.5896 18.8867 41.8495 18.8867Z" fill="#33CC33"/>
</svg>
