<svg width="66" height="67" viewBox="0 0 66 67" fill="none" xmlns="http://www.w3.org/2000/svg">
<path d="M3 29.9737C3 27.6722 3.99119 25.4822 5.72029 23.9634L27.7203 4.63786C30.7402 1.98504 35.2598 1.98504 38.2797 4.63786L60.2797 23.9634C62.0088 25.4822 63 27.6722 63 29.9737V56C63 60.4183 59.4183 64 55 64H48.5C44.0817 64 40.5 60.4183 40.5 56V48.9118C40.5 44.7696 37.1421 41.4118 33 41.4118V41.4118C28.8579 41.4118 25.5 44.7696 25.5 48.9118V56C25.5 60.4183 21.9183 64 17.5 64H11C6.58172 64 3 60.4183 3 56V29.9737Z" stroke="white" stroke-width="5" stroke-linejoin="round"/>
</svg>
