<svg width="60" height="60" viewBox="0 0 60 60" fill="none" xmlns="http://www.w3.org/2000/svg">
<path d="M60 30C60 46.5685 46.5685 60 30 60C13.4315 60 0 46.5685 0 30C0 13.4315 13.4315 0 30 0C46.5685 0 60 13.4315 60 30Z" fill="url(#paint0_linear_19_3418)"/>
<path d="M22.0297 44.8974L21.7168 46.8728L21.7168 46.8728L22.0297 44.8974ZM15.1026 37.9703L17.078 37.6574L15.1026 37.9703ZM44.8974 37.9703L46.8728 38.2832L46.8728 38.2832L44.8974 37.9703ZM37.9703 44.8974L38.2832 46.8728L38.2832 46.8728L37.9703 44.8974ZM44.9331 27.1322C44.2697 26.249 43.016 26.0708 42.1328 26.7342C41.2496 27.3976 41.0714 28.6513 41.7348 29.5345L44.9331 27.1322ZM18.2652 29.5345C18.9286 28.6513 18.7504 27.3976 17.8672 26.7342C16.984 26.0708 15.7303 26.249 15.0669 27.1322L18.2652 29.5345ZM32 15C32 13.8954 31.1046 13 30 13C28.8954 13 28 13.8954 28 15H32ZM24.9005 30.4241C24.2142 29.5586 22.9563 29.4132 22.0907 30.0995C21.2252 30.7858 21.0799 32.0437 21.7662 32.9093L24.9005 30.4241ZM25.6631 34.6049L24.0959 35.8475L24.0959 35.8475L25.6631 34.6049ZM34.3369 34.6049L32.7698 33.3624L32.7698 33.3624L34.3369 34.6049ZM38.2338 32.9093C38.9201 32.0437 38.7748 30.7858 37.9093 30.0995C37.0437 29.4132 35.7858 29.5586 35.0995 30.4241L38.2338 32.9093ZM29.5822 38.3002L29.2675 40.2753L29.2675 40.2753L29.5822 38.3002ZM30.4178 38.3002L30.7325 40.2753L30.7325 40.2753L30.4178 38.3002ZM43 33.3333V35H47V33.3333H43ZM35 43H25V47H35V43ZM17 35V33.3333H13V35H17ZM25 43C23.3752 43 22.7957 42.9938 22.3426 42.922L21.7168 46.8728C22.5593 47.0062 23.5281 47 25 47V43ZM13 35C13 36.4719 12.9938 37.4407 13.1272 38.2832L17.078 37.6574C17.0062 37.2043 17 36.6248 17 35H13ZM22.3426 42.922C19.6326 42.4928 17.5072 40.3674 17.078 37.6574L13.1272 38.2832C13.8275 42.7047 17.2953 46.1725 21.7168 46.8728L22.3426 42.922ZM43 35C43 36.6248 42.9938 37.2043 42.922 37.6574L46.8728 38.2832C47.0062 37.4407 47 36.4719 47 35H43ZM35 47C36.4719 47 37.4407 47.0062 38.2832 46.8728L37.6574 42.922C37.2043 42.9938 36.6248 43 35 43V47ZM42.922 37.6574C42.4928 40.3674 40.3674 42.4928 37.6574 42.922L38.2832 46.8728C42.7047 46.1725 46.1725 42.7047 46.8728 38.2832L42.922 37.6574ZM47 33.3333C47 31.0094 46.2304 28.8594 44.9331 27.1322L41.7348 29.5345C42.5297 30.5928 43 31.9053 43 33.3333H47ZM17 33.3333C17 31.9053 17.4703 30.5928 18.2652 29.5345L15.0669 27.1322C13.7696 28.8594 13 31.0094 13 33.3333H17ZM28 15V36.6667H32V15H28ZM21.7662 32.9093L24.0959 35.8475L27.2302 33.3624L24.9005 30.4241L21.7662 32.9093ZM35.9041 35.8475L38.2338 32.9093L35.0995 30.4241L32.7698 33.3624L35.9041 35.8475ZM24.0959 35.8475C24.9945 36.9809 25.7727 37.9673 26.4778 38.6751C27.1919 39.3919 28.0788 40.0859 29.2675 40.2753L29.8969 36.3251C29.9534 36.3341 29.8097 36.3521 29.3117 35.8521C28.8048 35.3433 28.1895 34.5723 27.2302 33.3624L24.0959 35.8475ZM32.7698 33.3624C31.8104 34.5723 31.1952 35.3433 30.6883 35.8521C30.1903 36.3521 30.0466 36.3341 30.1031 36.3251L30.7325 40.2753C31.9212 40.0859 32.8081 39.3919 33.5222 38.6751C34.2273 37.9673 35.0055 36.9809 35.9041 35.8475L32.7698 33.3624ZM29.2675 40.2753C29.5099 40.3139 29.7547 40.3333 30 40.3333L30 36.3333C29.9662 36.3333 29.9319 36.3307 29.8969 36.3251L29.2675 40.2753ZM30 40.3333C30.2453 40.3333 30.4901 40.3139 30.7325 40.2753L30.1031 36.3251C30.0681 36.3307 30.0338 36.3333 30 36.3333L30 40.3333ZM28 36.6667V38.3333H32V36.6667H28Z" fill="#FAFAFA"/>
<defs>
<linearGradient id="paint0_linear_19_3418" x1="49.3077" y1="8.25001" x2="12.8542" y2="9.17871" gradientUnits="userSpaceOnUse">
<stop stop-color="#78B3E2"/>
<stop offset="1" stop-color="#2D8AD3"/>
</linearGradient>
</defs>
</svg>
