<svg width="186" height="223" viewBox="0 0 186 223" fill="none" xmlns="http://www.w3.org/2000/svg">
<path d="M83.5911 0.00824122C94.6991 0.00824122 105.277 0.108825 115.854 0.00824122C117.326 -0.0525591 118.792 0.223647 120.15 0.817385C121.508 1.41112 122.725 2.308 123.715 3.4449C143.284 23.9529 162.901 44.3883 182.566 64.751C183.708 65.8771 184.604 67.2455 185.195 68.7639C185.785 70.2822 186.057 71.9151 185.99 73.5522C185.99 112.378 185.99 121.481 185.99 160.323V189.962C186.108 196.832 184.083 203.556 180.219 209.123C177.414 213.359 173.644 216.802 169.247 219.143C164.85 221.484 159.965 222.649 155.029 222.534C113.636 222.635 72.2258 222.702 30.8161 222.534C13.1333 222.45 0.0160752 208.402 0 189.878C0 127.583 0 95.0269 0 32.7317C0 13.8889 13.2943 0.192642 31.411 0.108821C43.4996 0.108821 55.5239 0.108821 67.6607 0.108821H83.5911V0.00824122ZM111.658 12.6986H73.4476C59.4782 12.6986 45.5091 12.6148 31.5398 12.6986C19.8852 12.7825 12.2495 20.846 12.2495 33.0334C12.2495 95.0604 12.2495 127.449 12.2495 189.543C12.2495 201.68 20.0136 209.659 31.7003 209.659H154.113C155.593 209.705 157.074 209.598 158.534 209.341C167.954 207.413 173.677 199.785 173.677 189.006C173.677 143.039 173.677 126.811 173.677 80.8445C173.677 79.8554 173.58 78.8496 173.516 77.4917H170.14C160.72 77.4917 151.316 77.6761 141.912 77.4079C137.889 77.3707 133.912 76.505 130.21 74.8603C126.509 73.2157 123.156 70.8245 120.343 67.8243C117.53 64.8241 115.314 61.2738 113.82 57.3776C112.327 53.4813 111.587 49.3158 111.642 45.1203C111.562 35.5145 111.642 25.9087 111.642 16.3029L111.658 12.6986ZM124.02 22.1703C124.02 30.6529 123.827 38.5823 124.02 46.4782C124.174 51.3335 126.128 55.9372 129.471 59.3203C132.814 62.7034 137.286 64.6022 141.944 64.6169C148.76 64.7175 155.592 64.6169 162.424 64.6169C163.051 64.6169 163.678 64.4828 164.24 64.4325L124.02 22.1703Z" fill="black" fill-opacity="0.1"/>
<path d="M92.899 177.204H38.5808C33.9029 177.121 31.0416 174.656 31.0577 170.734C31.0738 166.811 33.9833 164.397 38.629 164.397H147.378C148.164 164.338 148.954 164.338 149.741 164.397C151.174 164.625 152.486 165.364 153.454 166.49C154.421 167.615 154.984 169.056 155.046 170.566C155.066 172.031 154.596 173.457 153.716 174.599C152.835 175.741 151.6 176.526 150.223 176.819C148.962 177.063 147.679 177.164 146.397 177.121L92.899 177.204Z" fill="black" fill-opacity="0.1"/>
<path d="M93.2365 119.083H146.285C147.355 119.018 148.429 119.018 149.5 119.083C150.936 119.27 152.264 119.98 153.249 121.087C154.234 122.194 154.813 123.627 154.885 125.135C154.939 126.645 154.467 128.125 153.557 129.302C152.648 130.479 151.361 131.273 149.934 131.539C148.663 131.74 147.377 131.824 146.092 131.79C110.63 131.79 75.1732 131.79 39.722 131.79C38.4367 131.824 37.1513 131.74 35.8802 131.539C34.4549 131.267 33.1698 130.471 32.2586 129.297C31.3473 128.122 30.8699 126.645 30.9128 125.135C30.9916 123.626 31.5754 122.195 32.5623 121.089C33.5493 119.983 34.8771 119.273 36.3143 119.083C37.385 119.018 38.4585 119.018 39.5293 119.083H93.2365Z" fill="black" fill-opacity="0.1"/>
<path d="M68.1267 86.4776C58.0315 86.4776 47.9365 86.4776 37.8413 86.4776C32.9223 86.4776 29.9805 82.5884 31.4112 78.213C31.8337 76.8215 32.7049 75.6255 33.877 74.8279C35.0491 74.0303 36.4499 73.6804 37.8413 73.8375C49.9138 73.8375 61.9541 73.8375 74.0588 73.8375C82.4822 73.8375 90.8895 73.8375 99.2968 73.8375C100.604 73.7621 101.896 74.1645 102.949 74.9754C104.002 75.7863 104.752 76.9549 105.068 78.28C105.542 79.5584 105.56 80.9715 105.121 82.2631C104.682 83.5548 103.813 84.6396 102.673 85.3209C101.18 86.1068 99.5222 86.4928 97.8502 86.4441C87.9318 86.5279 78.0291 86.4776 68.1267 86.4776Z" fill="black" fill-opacity="0.1"/>
</svg>
