<svg width="300" height="101" viewBox="0 0 300 101" fill="none" xmlns="http://www.w3.org/2000/svg">
<path d="M271.047 61.9677H283.179V12.0696H300V1.41992H254.492V12.0696H271.047V61.9677Z" fill="black"/>
<path d="M207.785 61.9677H248.338V51.2959H219.651V37.1407H241.16V26.6463H219.651V12.0696H246.538V1.41992H207.785V61.9677Z" fill="black"/>
<path d="M174.542 62.5448C179.164 62.5968 183.736 61.5946 187.91 59.6144C192.084 57.6342 195.751 54.7284 198.63 51.1186L189.742 43.5307C187.939 45.88 185.628 47.7913 182.98 49.1209C180.332 50.4504 177.417 51.1638 174.454 51.2074C163.61 51.2074 156.099 43.1091 156.099 31.8382C156.099 19.7464 163.944 12.0698 174.276 12.0698C177.244 12.092 180.166 12.796 182.817 14.1272C185.468 15.4584 187.776 17.3812 189.564 19.7465L198.452 12.3138C195.551 8.68919 191.873 5.75953 187.69 3.74001C183.506 1.72049 178.923 0.662392 174.276 0.643555C154.633 0.643555 143.545 14.5325 143.545 31.8382C143.634 51.8063 157.633 62.5448 174.542 62.5448Z" fill="black"/>
<path d="M108.37 45.483V15.8192C118.791 16.5736 123.924 22.808 123.924 30.9949C123.924 39.1818 118.791 44.7286 108.37 45.483ZM81.55 31.0615C81.55 22.8746 86.7496 16.5735 97.1044 15.8857V45.483C86.594 44.9061 81.55 39.0044 81.55 31.0615ZM136.212 31.0615C136.212 16.9951 126.724 6.16792 108.703 5.39138V0H96.7485V5.52449C78.7276 6.30103 69.084 17.1282 69.084 31.1947C69.084 45.2611 78.7276 55.0676 96.7485 55.8442V62.0564H108.703V55.7555C126.835 54.868 136.212 45.0614 136.212 31.0615Z" fill="black"/>
<path d="M47.9746 24.4057C48.7092 26.5511 49.1138 28.7953 49.1746 31.0617H61.729C61.6827 26.5812 60.7462 22.1545 58.9737 18.0381L47.9746 24.4057Z" fill="#FFD209"/>
<path d="M42.1748 15.8412C44.0987 17.4062 45.6733 19.356 46.7969 21.5653L57.6408 15.3087C55.3669 11.2899 52.1297 7.8974 48.2193 5.43555L42.1748 15.8412Z" fill="#D13B78"/>
<path d="M32.3531 11.9582C34.9464 12.1431 37.4663 12.901 39.7305 14.1769L45.6409 3.97085C41.4846 1.92999 36.9383 0.802729 32.3086 0.665039L32.3531 11.9582Z" fill="#61ADFF"/>
<path d="M30.9092 51.4729C19.9766 51.4729 12.466 42.5982 12.466 31.6823C12.466 21.2101 19.2874 12.7347 29.3755 11.9582V0.665039C11.8657 1.37502 0 14.1768 0 31.7266C0 49.7201 12.555 62.7881 30.9092 62.7881C47.9523 62.7881 60.6399 51.1844 61.6621 33.9453H49.0632C48.1077 44.1956 40.6418 51.4729 30.9092 51.4729Z" fill="black"/>
<path d="M7.7998 95.1201V74.908H10.2443V92.7905H21.0877V74.8857H23.5321V92.7905H26.2875V98.8697H24.0654V95.0979L7.7998 95.1201ZM31.554 95.1201H29.3319V82.1409H31.554V91.8143L39.0643 82.1409H41.2863V95.1201H39.0643V85.4467L31.554 95.1201ZM52.0858 100.889V95.4085H51.7521C50.8081 95.457 49.8642 95.3127 48.9778 94.9847C48.0915 94.6566 47.2811 94.1517 46.5968 93.5005C45.9708 92.8591 45.481 92.0982 45.1565 91.2633C44.832 90.4284 44.6796 89.5367 44.7084 88.6416C44.6887 87.7257 44.8587 86.8155 45.2075 85.9682C45.5563 85.1209 46.0766 84.3546 46.7357 83.7173C47.3948 83.08 48.1787 82.5854 49.038 82.2645C49.8974 81.9436 50.8137 81.8034 51.7299 81.8524H52.0858V74.908H54.3078V81.8524H54.6854C55.6175 81.8086 56.5483 81.9574 57.4201 82.2896C58.2919 82.6217 59.0859 83.13 59.7518 83.7827C60.9666 85.1146 61.6396 86.8512 61.6396 88.6527C61.6396 90.4542 60.9666 92.1908 59.7518 93.5227C59.0679 94.1732 58.2571 94.6762 57.3702 95.0007C56.4834 95.3251 55.5393 95.4639 54.5964 95.4085H54.2189V100.889H52.0858ZM47.1523 88.6416C47.1084 89.2647 47.2004 89.8899 47.4214 90.4742C47.6424 91.0585 47.9877 91.5881 48.4332 92.0266C48.8787 92.4651 49.4137 92.8021 50.0021 93.0144C50.5904 93.2267 51.2178 93.3093 51.8411 93.2565H52.0858V83.9158H51.6854C51.0695 83.8813 50.4539 83.9827 49.8816 84.2128C49.3094 84.4428 48.7947 84.7959 48.3746 85.2469C47.953 85.7018 47.6276 86.2369 47.4176 86.8201C47.2076 87.4033 47.1173 88.0228 47.1523 88.6416ZM54.7744 84.0045H54.3963V93.2565H54.6409C55.2721 93.3027 55.9061 93.2138 56.5001 92.9957C57.094 92.7776 57.6344 92.4353 58.0852 91.9918C58.9171 91.0785 59.3562 89.8752 59.3075 88.6416C59.3232 87.4334 58.8873 86.2627 58.0852 85.358C57.6653 84.9053 57.1511 84.5497 56.5793 84.3159C56.0074 84.0822 55.3917 83.9758 54.7744 84.0045ZM65.0845 100.889V82.1409H67.3065V83.6718C67.8263 83.0955 68.473 82.6473 69.1955 82.3627C69.9942 82.0155 70.8574 81.8416 71.7284 81.8524C72.5576 81.8107 73.3857 81.9521 74.1539 82.2665C74.9221 82.581 75.6114 83.0608 76.1725 83.6718C77.3256 84.9584 77.9592 86.6267 77.9503 88.3532C77.9995 90.1999 77.3212 91.9922 76.0613 93.3452C75.4329 94.0011 74.6722 94.5162 73.8295 94.8566C72.9868 95.197 72.0813 95.3549 71.1729 95.3198C69.8907 95.3827 68.6178 95.0745 67.5067 94.4323V100.8L65.0845 100.889ZM71.1507 84.0045C70.4273 83.988 69.7102 84.1422 69.0577 84.4545C68.4052 84.7667 67.8358 85.2282 67.3955 85.8016V92.2358C68.4172 92.9264 69.6286 93.283 70.862 93.2565C71.4739 93.2847 72.0846 93.1802 72.6523 92.9504C73.22 92.7207 73.7312 92.3709 74.1507 91.9252C74.9853 90.9958 75.4238 89.778 75.3729 88.5307C75.4263 87.3322 75.0211 86.1582 74.2396 85.2469C73.8544 84.812 73.3776 84.4672 72.8438 84.2371C72.3099 84.007 71.7318 83.8973 71.1507 83.9158V84.0045ZM82.2609 93.5005C81.0172 92.1831 80.3248 90.441 80.3248 88.6305C80.3248 86.82 81.0172 85.0779 82.2609 83.7605C83.6406 82.5332 85.4242 81.8551 87.272 81.8551C89.1197 81.8551 90.9028 82.5332 92.2824 83.7605C93.5115 85.0853 94.1947 86.8246 94.1947 88.6305C94.1947 90.4364 93.5115 92.1757 92.2824 93.5005C90.9028 94.7278 89.1197 95.4058 87.272 95.4058C85.4242 95.4058 83.6406 94.7278 82.2609 93.5005ZM82.7942 88.6416C82.756 89.8643 83.2034 91.0525 84.0387 91.9474C84.4552 92.3771 84.9568 92.7154 85.5116 92.9408C86.0663 93.1662 86.6619 93.2737 87.2606 93.2565C87.8603 93.2717 88.4569 93.1655 89.0145 92.9443C89.572 92.7232 90.0789 92.3916 90.5047 91.9696C91.3067 91.0458 91.7486 89.8642 91.7486 88.6416C91.7486 87.419 91.3067 86.2374 90.5047 85.3136C89.6393 84.4811 88.4845 84.016 87.2828 84.016C86.0811 84.016 84.9264 84.4811 84.0609 85.3136C83.6306 85.7526 83.2928 86.2732 83.0676 86.8449C82.8424 87.4165 82.7342 88.0275 82.7497 88.6416H82.7942ZM97.5267 95.1201V82.1409H99.5931H102.237C105.992 82.1409 107.859 83.2724 107.859 85.4911C107.879 86.2192 107.616 86.9268 107.126 87.4656C106.648 88.0205 105.985 88.3833 105.259 88.4863C107.282 88.8634 108.281 89.884 108.281 91.5481C108.281 94.0774 106.281 95.3198 102.304 95.3198C101.726 95.3198 100.882 95.3198 99.7488 95.3198H97.5267V95.1201ZM102.615 89.285H99.8377V93.2786H102.504C104.726 93.2786 105.815 92.5687 105.815 91.1931C105.815 89.8175 104.615 89.285 102.571 89.285H102.615ZM102.393 83.9158H99.8155V87.7763H102.748C103.419 87.8102 104.083 87.6231 104.637 87.2438C104.873 87.0756 105.063 86.852 105.191 86.5926C105.319 86.3332 105.381 86.0463 105.371 85.7573C105.348 84.5592 104.371 83.9158 102.393 83.9158ZM112.481 84.9142L111.881 83.0505C113.182 82.25 114.686 81.8418 116.214 81.8746C116.911 81.8079 117.614 81.8901 118.277 82.1158C118.94 82.3415 119.547 82.7054 120.058 83.1836C120.908 84.3344 121.318 85.7509 121.214 87.1772V95.1423H118.992V93.4783C118.495 94.094 117.86 94.5837 117.138 94.9076C116.416 95.2315 115.627 95.3804 114.837 95.3421C114.301 95.3748 113.764 95.293 113.263 95.1025C112.761 94.9119 112.306 94.6169 111.927 94.2369C111.549 93.8569 111.256 93.4009 111.068 92.899C110.88 92.3971 110.801 91.8609 110.837 91.3262C110.812 90.7505 110.925 90.1771 111.164 89.6528C111.403 89.1284 111.763 88.6679 112.214 88.3087C113.198 87.6681 114.337 87.3052 115.511 87.2583C116.685 87.2114 117.849 87.4824 118.88 88.0425C118.951 86.9823 118.753 85.9214 118.303 84.9585C118.032 84.5947 117.669 84.3103 117.251 84.1346C116.832 83.959 116.375 83.8988 115.925 83.9602C114.712 83.9891 113.523 84.3086 112.459 84.892L112.481 84.9142ZM115.659 93.2786C116.31 93.2751 116.952 93.1212 117.534 92.8287C118.117 92.5362 118.623 92.113 119.014 91.5925V89.9505C118.162 89.358 117.141 89.0548 116.103 89.0854C115.403 89.0692 114.715 89.2624 114.125 89.64C113.866 89.81 113.655 90.0448 113.515 90.3212C113.375 90.5975 113.309 90.9058 113.325 91.2152C113.309 91.4971 113.357 91.7792 113.465 92.0403C113.572 92.3014 113.737 92.535 113.947 92.7239C114.45 93.1215 115.086 93.3122 115.725 93.2565L115.659 93.2786ZM130.791 82.1852H134.835V95.1645H132.613V90.7936H130.102L126.902 95.1201H124.102L127.858 90.2169C127.088 90.0248 126.403 89.5888 125.902 88.9744C125.332 88.265 125.033 87.3765 125.058 86.4673C125.046 85.8783 125.165 85.294 125.407 84.7567C125.649 84.2195 126.008 83.7428 126.458 83.3611C127.706 82.4597 129.233 82.0275 130.769 82.1409L130.791 82.1852ZM127.436 86.6225C127.426 86.9177 127.487 87.211 127.615 87.4774C127.743 87.7438 127.933 87.9757 128.169 88.1534C128.646 88.5417 129.242 88.7533 129.858 88.7525H132.524V84.3151H130.302C129.512 84.2663 128.729 84.4853 128.08 84.9364C127.848 85.1314 127.663 85.3766 127.54 85.6533C127.417 85.9301 127.358 86.2311 127.369 86.5338L127.436 86.6225ZM143.879 84.5592V82.3405H155.722V84.5592H150.967V95.231H148.745V84.5592H143.879ZM160.566 95.231H158.233V82.1409H160.566V91.8143L168.055 82.1409H170.277V95.1201H168.055V85.4467L160.566 95.231ZM183.964 95.231V84.4038H176.899V95.231H174.676V82.1409H186.365V95.1201L183.964 95.231ZM191.542 93.6114C190.298 92.294 189.605 90.5519 189.605 88.7414C189.605 86.9309 190.298 85.1888 191.542 83.8714C192.916 82.6412 194.696 81.9608 196.542 81.9608C198.387 81.9608 200.167 82.6412 201.541 83.8714C202.785 85.1888 203.477 86.9309 203.477 88.7414C203.477 90.5519 202.785 92.294 201.541 93.6114C200.167 94.8416 198.387 95.522 196.542 95.522C194.696 95.522 192.916 94.8416 191.542 93.6114ZM192.075 88.7525C192.045 89.3592 192.14 89.9657 192.354 90.5343C192.568 91.103 192.896 91.6217 193.319 92.0583C193.736 92.488 194.237 92.8264 194.792 93.0517C195.347 93.2771 195.943 93.3847 196.542 93.3674C197.138 93.3796 197.73 93.272 198.284 93.0509C198.837 92.8298 199.34 92.4998 199.764 92.0805C200.566 91.1567 201.007 89.9751 201.007 88.7525C201.007 87.5299 200.566 86.3483 199.764 85.4245C199.347 84.9948 198.845 84.6564 198.291 84.4311C197.736 84.2057 197.14 84.0983 196.542 84.1155C195.949 84.1063 195.361 84.2152 194.811 84.4362C194.262 84.6572 193.762 84.9857 193.342 85.4023C192.916 85.8475 192.585 86.3736 192.368 86.9491C192.15 87.5246 192.051 88.1378 192.075 88.7525ZM206.807 95.231V82.1409H215.029V84.3596H209.052V95.1867L206.807 95.231ZM217.273 101V82.1409H219.495V83.6718C220.015 83.0955 220.662 82.6473 221.384 82.3627C222.183 82.0155 223.046 81.8416 223.917 81.8524C224.746 81.8107 225.574 81.9521 226.343 82.2665C227.111 82.581 227.8 83.0608 228.361 83.6718C229.481 85.0031 230.06 86.7051 229.983 88.4419C230.041 90.2859 229.371 92.0787 228.117 93.4339C226.984 94.4852 225.549 95.1556 224.014 95.3506C222.48 95.5456 220.923 95.2555 219.562 94.5212V100.889L217.273 101ZM223.339 84.1155C222.616 84.099 221.899 84.2531 221.246 84.5654C220.594 84.8777 220.024 85.3393 219.584 85.9127V92.3468C220.606 93.0373 221.817 93.3939 223.051 93.3674C223.659 93.3969 224.267 93.2929 224.832 93.063C225.396 92.833 225.903 92.4825 226.317 92.0361C227.158 91.1089 227.604 89.8915 227.562 88.6416C227.615 87.4431 227.21 86.2692 226.428 85.358C226.034 84.9403 225.554 84.6129 225.02 84.3984C224.487 84.1839 223.913 84.0875 223.339 84.1155ZM234.027 85.0029L233.427 83.1393C234.728 82.3389 236.233 81.9305 237.76 81.9633C238.458 81.8966 239.161 81.9788 239.824 82.2045C240.487 82.4302 241.094 82.7943 241.605 83.2724C242.444 84.4284 242.853 85.841 242.76 87.266V95.231H240.538V93.567C240.042 94.1827 239.406 94.6724 238.684 94.9963C237.962 95.3202 237.174 95.4691 236.383 95.4307C235.847 95.4635 235.311 95.3819 234.809 95.1913C234.308 95.0008 233.852 94.7056 233.474 94.3256C233.095 93.9456 232.802 93.4896 232.614 92.9877C232.426 92.4858 232.347 91.9496 232.383 91.4149C232.359 90.8392 232.471 90.2659 232.71 89.7416C232.95 89.2173 233.31 88.7568 233.761 88.3976C234.757 87.7357 235.917 87.3607 237.112 87.3137C238.308 87.2667 239.493 87.5496 240.538 88.1313C240.594 87.0721 240.396 86.0147 239.96 85.0473C239.697 84.6817 239.338 84.3953 238.922 84.2193C238.507 84.0432 238.052 83.9843 237.605 84.0489C236.354 84.0325 235.118 84.3219 234.005 84.892L234.027 85.0029ZM237.205 93.3674C237.857 93.3657 238.5 93.2124 239.082 92.9197C239.664 92.627 240.17 92.203 240.56 91.6812V90.0394C239.708 89.4468 238.688 89.1435 237.65 89.1741C236.957 89.1583 236.275 89.3516 235.694 89.7287C235.429 89.8944 235.213 90.1278 235.069 90.4047C234.924 90.6817 234.856 90.9921 234.872 91.304C234.856 91.586 234.903 91.8679 235.011 92.129C235.119 92.3901 235.284 92.6238 235.494 92.8127C235.987 93.1541 236.585 93.3112 237.183 93.2565L237.205 93.3674ZM253.137 101V95.5194H252.826C251.882 95.5692 250.938 95.4256 250.051 95.0975C249.165 94.7694 248.354 94.2636 247.671 93.6114C247.041 92.9719 246.547 92.2119 246.218 91.3769C245.89 90.5419 245.734 89.6492 245.76 88.7525C245.74 87.8366 245.91 86.9265 246.259 86.0792C246.608 85.2319 247.128 84.4656 247.787 83.8283C248.446 83.191 249.23 82.6963 250.09 82.3754C250.949 82.0545 251.865 81.9143 252.782 81.9633H253.137V75.0189H255.359V81.9633H255.737C256.672 81.9204 257.606 82.0697 258.482 82.4017C259.357 82.7337 260.155 83.2414 260.826 83.8936C261.456 84.5331 261.949 85.2933 262.278 86.1282C262.606 86.9632 262.762 87.8558 262.736 88.7525C262.774 89.6482 262.63 90.5422 262.313 91.381C261.996 92.2197 261.513 92.986 260.892 93.6336C260.211 94.2874 259.4 94.7926 258.513 95.1173C257.626 95.4419 256.68 95.5788 255.737 95.5194H255.359V101H253.137ZM248.226 88.7525C248.19 89.3665 248.282 89.9814 248.496 90.5582C248.71 91.1349 249.042 91.6609 249.471 92.1027C249.927 92.5383 250.469 92.8753 251.061 93.0929C251.654 93.3105 252.285 93.4039 252.915 93.3674H253.137V83.9158H252.759C252.14 83.881 251.521 83.9822 250.945 84.2122C250.369 84.4422 249.851 84.7954 249.426 85.2469C248.613 86.1526 248.183 87.3375 248.226 88.5529V88.7525ZM255.715 83.9158H255.337V93.1677H255.604C256.234 93.2069 256.866 93.1147 257.459 92.897C258.052 92.6792 258.593 92.3407 259.048 91.903C259.872 90.9862 260.303 89.7834 260.248 88.5529C260.272 87.3473 259.844 86.1761 259.048 85.2692C258.623 84.8172 258.105 84.4622 257.529 84.2286C256.954 83.995 256.335 83.8883 255.715 83.9158ZM268.358 95.0092H266.136V82.1409H268.358V91.8143L275.869 82.1409H278.091V95.1201H275.869V85.4467L268.358 95.0092ZM288.068 82.03H292.112V95.0092H289.89V90.7936H287.379L284.179 95.1201H281.402L285.135 90.2169C284.368 90.019 283.684 89.5841 283.18 88.9744C282.61 88.265 282.31 87.3765 282.335 86.4673C282.323 85.8783 282.442 85.294 282.684 84.7567C282.926 84.2195 283.286 83.7428 283.735 83.3611C285.019 82.4288 286.599 81.995 288.179 82.1409L288.068 82.03ZM284.713 86.4673C284.702 86.765 284.765 87.0608 284.897 87.328C285.029 87.5953 285.225 87.8256 285.468 87.9982C285.936 88.3865 286.526 88.5984 287.134 88.5972H289.801V84.1598H287.579C286.79 84.1127 286.007 84.3316 285.357 84.7811C285.134 85.0051 284.967 85.2788 284.871 85.5797C284.774 85.8805 284.751 86.1998 284.802 86.5116L284.713 86.4673Z" fill="black"/>
</svg>
