<svg width="83" height="90" viewBox="0 0 83 90" fill="none" xmlns="http://www.w3.org/2000/svg">
<path d="M82.9949 29.1356C83.0257 28.4883 82.9158 27.842 82.6728 27.2413C82.4297 26.6406 82.0594 26.0997 81.5871 25.6559C73.4545 17.5809 65.3507 9.48367 57.2757 1.36436C56.8661 0.914724 56.3633 0.55995 55.8024 0.324813C55.2416 0.0896761 54.6361 -0.0201429 54.0284 0.00303443C49.6588 0.069441 45.2892 0.00303443 40.7005 0.00303443H34.0798C29.0927 0.00303443 24.1188 0.00303443 19.1051 0.00303443C11.6277 0.00303443 6.13595 5.46829 6.12931 12.9258C6.12931 25.6891 6.12931 35.7829 6.12931 45.9697H5.31253C3.90356 45.9697 2.55229 46.5294 1.556 47.5257C0.559707 48.522 0 49.8732 0 51.2822V68.8135C0 70.2225 0.559707 71.5738 1.556 72.5701C2.55229 73.5664 3.90356 74.1261 5.31253 74.1261H6.14261V76.9882C6.14261 84.3261 11.5481 89.891 18.8793 89.9242C35.979 90.0039 53.0854 89.9707 70.1851 89.9242C72.2235 89.9674 74.2408 89.5048 76.0567 88.5777C77.8726 87.6506 79.4305 86.288 80.591 84.6117C82.1811 82.4041 83.015 79.7416 82.9683 77.0214V65.3205C82.975 49.9408 82.9617 44.5353 82.9949 29.1356ZM57.3952 8.80191L73.9968 25.5496C73.7484 25.5891 73.4978 25.6135 73.2464 25.6227C70.4308 25.6227 67.6085 25.6625 64.7862 25.6227C62.863 25.6151 61.0177 24.8623 59.6381 23.5223C58.2585 22.1823 57.4521 20.3597 57.3885 18.4375C57.3221 15.3164 57.3952 12.1687 57.3952 8.80191ZM77.9082 76.7093C77.9082 80.9726 75.5441 84.014 71.6526 84.7578C71.0473 84.8597 70.4334 84.9019 69.8198 84.8839C52.9658 84.8839 36.1119 84.8839 19.2579 84.8839C14.4368 84.8839 11.2293 81.723 11.2293 76.9151C11.2293 75.9788 11.2293 75.0624 11.2293 74.146H53.0256C54.4346 74.146 55.7859 73.5863 56.7822 72.59C57.7785 71.5937 58.3382 70.2424 58.3382 68.8335V51.3021C58.3382 49.8932 57.7785 48.5419 56.7822 47.5456C55.7859 46.5493 54.4346 45.9896 53.0256 45.9896H11.1895C11.1895 35.8559 11.1895 25.8086 11.1895 13.1051C11.1895 8.2773 14.3438 5.08977 19.1583 5.05657C24.9224 5.01672 30.6931 5.05657 36.4638 5.05657H52.2486V6.50424C52.2486 10.3093 52.2486 14.1144 52.2486 17.9195C52.2258 19.5815 52.5316 21.2315 53.1484 22.7749C53.7652 24.3183 54.6809 25.7247 55.8428 26.9131C57.0047 28.1016 58.39 29.0488 59.9191 29.7003C61.4482 30.3518 63.091 30.6947 64.753 30.7094C68.6311 30.8157 72.5226 30.7094 76.4074 30.7426H77.8019C77.8019 31.2606 77.8683 31.6591 77.8683 32.0708C77.9081 50.2529 77.9082 58.4807 77.9082 76.7093ZM12.9028 65.3272V54.0381H17.777C18.6681 54.017 19.5534 54.1868 20.3735 54.5361C21.066 54.8316 21.657 55.3233 22.0735 55.9506C22.4828 56.5995 22.6907 57.3551 22.6711 58.1221C22.689 58.8867 22.4812 59.6397 22.0735 60.2869C21.6592 60.9177 21.0677 61.4121 20.3735 61.708C19.5515 62.0497 18.6669 62.2148 17.777 62.1928H15.5059V65.3006L12.9028 65.3272ZM24.5173 65.3272V54.0381H29.6373C30.7544 54.0051 31.8637 54.2324 32.8778 54.7021C33.7811 55.1469 34.5407 55.8374 35.0693 56.6943C35.6001 57.5895 35.8693 58.6156 35.8463 59.6561C35.8693 60.6965 35.6001 61.7226 35.0693 62.6178C34.5407 63.4748 33.7811 64.1653 32.8778 64.61C31.8665 65.0911 30.757 65.3299 29.6373 65.3073L24.5173 65.3272ZM45.6279 59.1315V61.2233H40.415V65.3272H37.8119V54.0381H46.3252V56.1299H40.415V59.1447L45.6279 59.1315Z" fill="url(#paint0_linear_76_710)"/>
<path d="M32.213 57.1522C31.4727 56.4966 30.5045 56.1579 29.517 56.2092H27.1396V63.1952H29.517C30.5045 63.2464 31.4727 62.9078 32.213 62.2522C32.5532 61.9235 32.8193 61.526 32.9933 61.0863C33.1674 60.6465 33.2455 60.1746 33.2224 59.7022C33.2455 59.2298 33.1674 58.7579 32.9933 58.3181C32.8193 57.8783 32.5532 57.4808 32.213 57.1522Z" fill="url(#paint1_linear_76_710)"/>
<path d="M19.4308 59.5897C19.6373 59.4132 19.8001 59.1912 19.9061 58.9411C20.0121 58.691 20.0585 58.4197 20.0418 58.1486C20.0591 57.8755 20.013 57.6021 19.907 57.3498C19.801 57.0975 19.638 56.8731 19.4308 56.6943C18.9126 56.3225 18.2806 56.144 17.6445 56.1896H15.5195V60.101H17.6445C18.2814 60.1447 18.9135 59.9638 19.4308 59.5897Z" fill="url(#paint2_linear_76_710)"/>
<defs>
<linearGradient id="paint0_linear_76_710" x1="9.35957" y1="74.0642" x2="55.002" y2="7.94681" gradientUnits="userSpaceOnUse">
<stop stop-color="#D56BA6"/>
<stop offset="1" stop-color="#992C6D"/>
</linearGradient>
<linearGradient id="paint1_linear_76_710" x1="27.826" y1="61.9632" x2="31.4441" y2="57.0203" gradientUnits="userSpaceOnUse">
<stop stop-color="#D56BA6"/>
<stop offset="1" stop-color="#992C6D"/>
</linearGradient>
<linearGradient id="paint2_linear_76_710" x1="16.0299" y1="59.4134" x2="17.8321" y2="56.1501" gradientUnits="userSpaceOnUse">
<stop stop-color="#D56BA6"/>
<stop offset="1" stop-color="#992C6D"/>
</linearGradient>
</defs>
</svg>
