<svg width="387" height="430" viewBox="0 0 387 430" fill="none" xmlns="http://www.w3.org/2000/svg">
<g opacity="0.1">
<path d="M193.403 377.81H111.69C104.679 377.689 100.352 374.135 100.376 368.502C100.4 362.869 104.776 359.34 111.787 359.34H275.309C276.503 359.295 277.699 359.336 278.887 359.46C281.043 359.781 283.019 360.846 284.472 362.471C285.925 364.096 286.763 366.179 286.841 368.357C286.877 370.471 286.171 372.531 284.846 374.178C283.521 375.825 281.661 376.956 279.588 377.374C277.682 377.714 275.746 377.86 273.81 377.81H193.403Z" fill="black"/>
<path d="M193.838 294.018H273.81C275.421 293.935 277.034 293.935 278.645 294.018C280.806 294.292 282.803 295.315 284.287 296.91C285.772 298.505 286.65 300.57 286.768 302.745C286.853 304.928 286.142 307.068 284.768 308.766C283.394 310.465 281.45 311.607 279.298 311.98C277.386 312.271 275.453 312.392 273.52 312.343H113.624C111.691 312.392 109.757 312.271 107.846 311.98C105.702 311.598 103.767 310.457 102.396 308.766C101.024 307.074 100.307 304.946 100.376 302.769C100.488 300.593 101.36 298.526 102.839 296.926C104.319 295.327 106.313 294.298 108.474 294.018C110.085 293.936 111.699 293.936 113.309 294.018H193.838Z" fill="black"/>
<path d="M325.64 200.7C322.435 200.7 319.36 199.426 317.093 197.159C314.826 194.893 313.553 191.818 313.553 188.612C313.603 185.422 314.892 182.376 317.148 180.12C319.405 177.864 322.45 176.574 325.64 176.524C327.248 176.524 328.84 176.845 330.323 177.467C331.805 178.09 333.149 179.002 334.274 180.15C335.4 181.298 336.285 182.659 336.879 184.154C337.472 185.648 337.76 187.246 337.728 188.854C337.665 192.018 336.364 195.03 334.104 197.245C331.844 199.46 328.805 200.7 325.64 200.7Z" fill="black"/>
<path d="M338.456 137.578H333.621C333.621 104.651 333.621 100.614 333.621 47.2588C333.621 20.545 313.942 0.286029 287.252 0.165152C225.001 -0.100778 162.725 -0.00407641 100.449 0.165152C93.0278 0.00575367 85.6827 1.68901 79.0715 5.0642C72.4604 8.43939 66.7894 13.4012 62.566 19.5055C56.7632 27.5352 53.7259 37.2327 53.9113 47.138V137.627H49.0762C42.6481 137.592 36.2762 138.827 30.3267 141.261C24.3772 143.695 18.9673 147.28 14.4073 151.811C9.84726 156.342 6.22709 161.729 3.75469 167.663C1.28228 173.596 0.0062723 179.96 0 186.388V295.806C0 308.752 5.14263 321.167 14.2963 330.32C23.45 339.474 35.8648 344.616 48.81 344.616H53.6451C53.6451 350.733 53.6451 360.645 53.6451 381.919C53.6451 408.633 73.324 428.892 100.014 429.013C162.29 429.279 224.541 429.182 286.817 429.013C294.24 429.181 301.588 427.501 308.2 424.126C314.813 420.75 320.483 415.783 324.7 409.673C330.503 401.643 333.54 391.945 333.355 382.04V356.656V344.568H338.19C351.135 344.568 363.55 339.426 372.704 330.272C381.858 321.118 387 308.703 387 295.758V186.34C386.987 173.449 381.876 161.087 372.781 151.951C363.686 142.815 351.347 137.648 338.456 137.578ZM72.2846 48.3951C72.2846 32.8503 80.915 21.8022 95.0576 19.0703C97.2629 18.712 99.4965 18.5582 101.73 18.611H285.826C303.377 18.611 315.054 30.1185 315.054 47.6215C315.054 100.807 315.054 104.845 315.054 137.602H72.1878C72.1636 100.106 72.1636 102.064 72.1878 48.3951H72.2846ZM315.175 380.783C315.175 396.328 306.544 407.376 292.402 410.108C290.198 410.479 287.963 410.633 285.729 410.567H101.537C83.9854 410.567 72.3088 399.084 72.3088 381.556C72.3088 317.588 72.3088 357.164 72.3088 293.195V291.116C72.3088 275.596 80.9392 264.523 95.0818 261.792C97.2871 261.433 99.5207 261.279 101.754 261.332H285.85C303.401 261.332 315.078 272.84 315.078 290.343C315.078 350.443 315.078 296.58 315.078 356.68C315.078 362.53 315.078 370.242 315.078 380.783H315.175ZM368.047 295.806C368.04 303.652 364.921 311.175 359.373 316.723C353.825 322.271 346.302 325.391 338.456 325.397H333.621C333.621 320.9 333.621 326.993 333.621 301.222C333.621 298.804 333.621 295.951 333.621 292.664V290.077C333.621 263.363 313.942 243.104 287.252 242.983C225.001 242.717 162.725 242.814 100.449 242.983C93.0278 242.824 85.6827 244.507 79.0715 247.882C72.4604 251.257 66.7894 256.219 62.566 262.323C56.7773 270.36 53.7416 280.053 53.9113 289.956V292.712V325.518H49.0762C45.1688 325.534 41.2968 324.776 37.6835 323.289C34.0702 321.802 30.7869 319.614 28.0228 316.853C25.2587 314.091 23.0683 310.809 21.5782 307.197C20.088 303.585 19.3275 299.714 19.3403 295.806V186.388C19.3467 178.547 22.4629 171.027 28.0057 165.48C33.5484 159.933 41.065 156.811 48.9068 156.798H338.456C346.302 156.804 353.825 159.924 359.373 165.472C364.921 171.02 368.04 178.542 368.047 186.388V295.806Z" fill="black"/>
</g>
</svg>
