<svg width="259" height="168" viewBox="0 0 259 168" fill="none" xmlns="http://www.w3.org/2000/svg">
<path d="M259 122.783C258.714 125.119 258.562 127.202 258.175 129.269C256.864 136.799 252.818 143.583 246.809 148.323C241.758 152.456 236.555 156.505 231.436 160.622C225.518 165.468 218.078 168.079 210.423 167.998C170.697 167.998 130.97 167.998 91.2442 167.998C79.3062 167.998 71.1904 159.597 71.1231 147.651V142.156H20.7444C8.11596 142.156 0.0168379 134.175 0 121.607C0 96.6054 0 71.5981 0 46.5851C0 34.0171 8.11588 25.9688 20.6601 25.952H71.1736V20.2224C71.2578 8.62888 79.2895 0.378984 90.9244 0.0597413C96.5819 -0.0746766 102.24 0.0597413 107.897 0.0597413C141.354 0.0597413 174.811 0.0597413 208.284 0.0597413C217.355 -0.21067 226.204 2.8844 233.12 8.74652C237.279 12.275 241.539 15.6018 245.883 18.9791C249.749 21.8491 252.916 25.5536 255.146 29.8159C257.377 34.0782 258.613 38.7883 258.764 43.5944C258.764 44.0816 258.882 44.5521 258.983 45.3586L259 122.783ZM84.0207 83.8525C84.0207 104.923 84.0207 125.998 84.0207 147.079C84.0207 152.49 86.2772 154.993 91.3285 154.993C131.156 154.993 171.005 154.993 210.877 154.993C215.364 155.029 219.723 153.502 223.203 150.675C228.17 146.71 233.137 142.728 238.121 138.779C240.625 136.876 242.638 134.405 243.994 131.571C245.35 128.736 246.009 125.62 245.917 122.481C245.917 96.8743 245.917 71.262 245.917 45.6442C246.025 42.507 245.38 39.3894 244.036 36.5513C242.691 33.7133 240.686 31.2371 238.188 29.3293C233.608 25.6664 228.961 22.1043 224.482 18.3406C220.203 14.7365 214.74 12.8394 209.143 13.0143C170.315 13.0983 131.504 13.0143 92.6925 13.0143C86.092 13.0143 84.0713 15.0641 84.0713 21.7514L84.0207 83.8525ZM71.0388 38.9233C69.9612 38.9233 69.1701 38.8057 68.3787 38.8057H21.0642C15.1878 38.8057 12.8976 41.1748 12.8808 47.1228V120.952C12.8808 127.034 15.1539 129.269 21.2997 129.353H70.9882L71.0388 38.9233ZM258.966 58.3131V109.728V58.3131Z" fill="black" fill-opacity="0.1"/>
<path d="M174.61 90.5397H113.422C112.613 90.5397 111.737 90.5397 110.98 90.5397C106.4 90.422 103.436 87.8177 103.487 83.97C103.537 80.1223 106.501 77.5683 111.131 77.5515C119.719 77.5515 128.306 77.5515 136.893 77.5515H158.126C159.085 77.5515 160.045 77.4507 161.493 77.3835C158.311 73.1326 155.482 69.2344 152.485 65.4875C151.727 64.9491 150.803 64.6935 149.875 64.765C143.41 64.765 136.944 64.765 130.478 64.765C125.898 64.765 122.918 62.1439 122.952 58.2794C122.985 54.4149 125.865 51.9449 130.259 51.9281C138.358 51.9281 146.44 51.9281 154.523 51.9281C155.847 51.8794 157.161 52.1705 158.34 52.7736C159.52 53.3767 160.524 54.2715 161.258 55.3726C166.309 62.1775 171.361 68.9824 176.58 75.6529C177.585 76.7957 179.001 77.4962 180.52 77.602C192.946 77.7364 205.373 77.602 217.799 77.7028C219.209 77.6634 220.618 77.8046 221.992 78.1228C223.321 78.4918 224.488 79.2914 225.311 80.3957C226.135 81.4999 226.566 82.846 226.538 84.222C226.547 85.5924 226.104 86.9276 225.276 88.021C224.448 89.1144 223.282 89.9052 221.958 90.2708C220.678 90.5652 219.366 90.7007 218.052 90.6741C209.97 90.6741 201.888 90.7749 193.805 90.6741C192.869 90.5986 191.931 90.7851 191.095 91.2125C190.259 91.6399 189.559 92.2913 189.074 93.0936C184.258 99.6969 179.241 106.149 174.408 112.752C173.609 113.972 172.502 114.961 171.198 115.619C169.895 116.277 168.441 116.58 166.982 116.499C159.203 116.382 151.408 116.499 143.629 116.499C138.863 116.499 136.119 114.113 136.102 110.131C136.085 106.149 138.897 103.679 143.561 103.645C149.943 103.645 156.308 103.746 162.672 103.561C164.076 103.458 165.387 102.828 166.343 101.797C169.003 98.2351 171.512 94.6898 174.61 90.5397Z" fill="black" fill-opacity="0.1"/>
<path d="M38.7451 103.562C38.7451 105.578 38.8293 107.594 38.7451 109.594C38.5262 113.643 36.0005 116.197 32.3467 116.231C31.4843 116.263 30.6242 116.119 29.8202 115.806C29.0161 115.493 28.2853 115.019 27.6727 114.412C27.0601 113.805 26.5788 113.08 26.259 112.28C25.9392 111.48 25.7878 110.623 25.8138 109.762C25.6454 105.545 25.6454 101.361 25.8138 97.0762C25.7831 96.2148 25.9307 95.3563 26.2475 94.5544C26.5643 93.7526 27.0434 93.0245 27.655 92.4158C28.2666 91.8071 28.9973 91.3309 29.8017 91.0168C30.6061 90.7027 31.4667 90.5576 32.3298 90.5905C33.1924 90.5853 34.0472 90.7546 34.8423 91.0883C35.6375 91.4219 36.3565 91.913 36.9561 92.5317C37.5557 93.1505 38.0233 93.8841 38.3308 94.6883C38.6383 95.4925 38.7793 96.3505 38.7451 97.2106C38.8967 99.3277 38.7451 101.445 38.7451 103.562Z" fill="black" fill-opacity="0.1"/>
<path d="M38.7441 64.7649C38.7441 66.8652 38.862 68.9991 38.7441 71.0994C38.7557 71.9592 38.5934 72.8125 38.2664 73.6082C37.9395 74.4038 37.4545 75.1253 36.8412 75.7294C36.2279 76.3335 35.4989 76.8078 34.6974 77.1238C33.896 77.4398 33.0389 77.5909 32.1775 77.5682C31.3385 77.5795 30.5056 77.423 29.7283 77.1078C28.951 76.7926 28.2448 76.3252 27.6515 75.7332C27.0582 75.1412 26.5898 74.4365 26.274 73.6608C25.9581 72.8851 25.8014 72.0542 25.8127 71.217C25.6275 66.8988 25.6275 62.547 25.8127 58.2288C25.8012 57.3925 25.9586 56.5625 26.276 55.7884C26.5935 55.0143 27.0643 54.3121 27.6601 53.7238C28.256 53.1355 28.9648 52.6732 29.7439 52.3647C30.523 52.0561 31.3564 51.9076 32.1944 51.928C33.0284 51.8943 33.8604 52.0264 34.6427 52.3166C35.4251 52.6068 36.1421 53.0493 36.7516 53.6184C37.3611 54.1875 37.8512 54.8718 38.1933 55.6316C38.5353 56.3913 38.7225 57.2114 38.7441 58.044C38.9293 60.2451 38.7441 62.4798 38.7441 64.7649Z" fill="black" fill-opacity="0.1"/>
</svg>
