<svg width="387" height="429" viewBox="0 0 387 429" fill="none" xmlns="http://www.w3.org/2000/svg">
<g opacity="0.1">
<path fill-rule="evenodd" clip-rule="evenodd" d="M80 17H307C341.794 17 370 45.2061 370 80V262C370 296.794 341.794 325 307 325H228H159H80C45.2061 325 17 296.794 17 262V80C17 45.2061 45.2061 17 80 17ZM307 342H247.777C247.924 342.979 248 343.98 248 345V362C248 363.02 247.924 364.021 247.777 365H280C291.046 365 300 373.954 300 385V409C300 420.046 291.046 429 280 429H107C95.9543 429 87 420.046 87 409V385C87 373.954 95.9543 365 107 365H139.223C139.076 364.021 139 363.02 139 362V345C139 343.98 139.076 342.979 139.223 342H80C35.8172 342 0 306.183 0 262V80C0 35.8172 35.8172 0 80 0H307C351.183 0 387 35.8172 387 80V262C387 306.183 351.183 342 307 342ZM159 365H228C229.657 365 231 363.657 231 362V345C231 343.343 229.657 342 228 342H159C157.343 342 156 343.343 156 345V362C156 363.657 157.343 365 159 365ZM228 382H159H107C105.343 382 104 383.343 104 385V409C104 410.657 105.343 412 107 412H280C281.657 412 283 410.657 283 409V385C283 383.343 281.657 382 280 382H228ZM272.942 126.442C275.947 122.835 275.46 117.476 271.853 114.47C268.247 111.465 262.887 111.952 259.882 115.559L203.674 183.007L172.271 141.135C170.615 138.929 167.992 137.662 165.235 137.739C162.477 137.815 159.928 139.225 158.398 141.521L107.927 217.226C105.324 221.132 106.379 226.41 110.285 229.014C114.191 231.618 119.468 230.562 122.072 226.656L165.879 160.947L196.523 201.806C198.083 203.885 200.508 205.137 203.106 205.203C205.704 205.27 208.19 204.144 209.853 202.148L272.942 126.442ZM91.8099 282.727C83.9823 282.708 76.4818 279.585 70.9537 274.043C65.4255 268.501 62.3211 260.993 62.3211 253.166V237.661C62.3211 235.098 61.3032 232.641 59.4915 230.83C57.6798 229.018 55.2227 228 52.6606 228C50.0984 228 47.6414 229.018 45.8297 230.83C44.0179 232.641 43 235.098 43 237.661V253.166C43 266.098 48.1375 278.501 57.2821 287.645C66.4267 296.79 78.8291 301.927 91.7615 301.927H107.291C109.853 301.927 112.311 300.91 114.122 299.098C115.934 297.286 116.952 294.829 116.952 292.267C116.952 289.705 115.934 287.248 114.122 285.436C112.311 283.624 109.853 282.606 107.291 282.606L91.8099 282.727ZM315.998 71.8728C310.469 66.3311 302.969 63.2081 295.141 63.1889L279.66 63.3097C277.098 63.3097 274.641 62.2919 272.829 60.4802C271.017 58.6685 270 56.2113 270 53.6491C270 51.087 271.017 48.6298 272.829 46.8181C274.641 45.0064 277.098 43.9886 279.66 43.9886H295.19C308.122 43.9886 320.524 49.1259 329.669 58.2705C338.814 67.4151 343.951 79.8179 343.951 92.7503V108.255C343.951 110.818 342.933 113.275 341.122 115.087C339.31 116.898 336.853 117.916 334.291 117.916C331.728 117.916 329.271 116.898 327.46 115.087C325.648 113.275 324.63 110.818 324.63 108.255L324.63 92.7503C324.63 84.9226 321.526 77.4146 315.998 71.8728ZM62.2124 92.7982C62.2316 84.9706 65.3545 77.4701 70.8963 71.9419C76.438 66.4138 83.9461 63.3094 91.7737 63.3094H107.279C109.841 63.3094 112.298 62.2915 114.11 60.4798C115.922 58.668 116.939 56.211 116.939 53.6488C116.939 51.0867 115.922 48.6296 114.11 46.8179C112.298 45.0062 109.841 43.9883 107.279 43.9883H91.7737C78.8413 43.9883 66.4386 49.1258 57.294 58.2704C48.1494 67.415 43.012 79.8174 43.012 92.7498V108.279C43.012 110.841 44.0298 113.299 45.8415 115.111C47.6532 116.922 50.1104 117.94 52.6726 117.94C55.2347 117.94 57.6919 116.922 59.5036 115.111C61.3153 113.299 62.3331 110.841 62.3331 108.279L62.2124 92.7982ZM316.055 273.974C321.597 268.446 324.72 260.945 324.739 253.118L324.618 237.637C324.618 235.075 325.636 232.617 327.448 230.806C329.259 228.994 331.716 227.976 334.279 227.976C336.841 227.976 339.298 228.994 341.11 230.806C342.921 232.617 343.939 235.075 343.939 237.637V253.166C343.939 266.099 338.802 278.501 329.657 287.646C320.513 296.79 308.11 301.928 295.177 301.928H279.672C277.11 301.928 274.653 300.91 272.841 299.098C271.03 297.286 270.012 294.829 270.012 292.267C270.012 289.705 271.03 287.248 272.841 285.436C274.653 283.625 277.11 282.607 279.672 282.607L295.177 282.607C303.005 282.607 310.513 279.502 316.055 273.974Z" fill="black"/>
</g>
</svg>
