<svg width="387" height="429" viewBox="0 0 387 429" fill="none" xmlns="http://www.w3.org/2000/svg">
<g opacity="0.1">
<path d="M19.3212 48.8584C19.3276 41.0266 22.4415 33.5174 27.9794 27.9795C33.5173 22.4416 41.0266 19.3276 48.8583 19.3212H64.3878C66.95 19.3212 69.407 18.3034 71.2187 16.4917C73.0304 14.68 74.0484 12.2228 74.0484 9.66066C74.0484 7.09852 73.0304 4.64131 71.2187 2.8296C69.407 1.01789 66.95 9.58964e-05 64.3878 9.58964e-05H48.8583C42.4386 -0.0126354 36.0795 1.24242 30.146 3.69327C24.2125 6.14412 18.8214 9.7425 14.2819 14.2819C9.74246 18.8214 6.14412 24.2125 3.69327 30.146C1.24242 36.0796 -0.0126354 42.4386 9.58964e-05 48.8584V64.3877C9.58964e-05 66.9499 1.01804 69.4071 2.82975 71.2188C4.64146 73.0305 7.09852 74.0483 9.66066 74.0483C12.2228 74.0483 14.6799 73.0305 16.4916 71.2188C18.3033 69.4071 19.3212 66.9499 19.3212 64.3877V48.8584Z" fill="black"/>
<path d="M338.118 19.3214C345.954 19.3214 353.469 22.4325 359.013 27.9711C364.556 33.5097 367.673 41.0226 367.679 48.8585V64.3879C367.679 66.95 368.697 69.4072 370.509 71.2189C372.321 73.0306 374.778 74.0484 377.34 74.0484C379.902 74.0484 382.359 73.0306 384.171 71.2189C385.983 69.4072 387 66.95 387 64.3879V48.8585C387 42.4449 385.735 36.0942 383.277 30.1703C380.819 24.2464 377.217 18.8656 372.676 14.336C368.135 9.80652 362.745 6.21725 356.815 3.77386C350.885 1.33047 344.532 0.080946 338.118 0.0968292H322.613C320.051 0.0968292 317.594 1.11463 315.782 2.92633C313.97 4.73804 312.952 7.19525 312.952 9.75739C312.952 12.3195 313.97 14.7767 315.782 16.5884C317.594 18.4002 320.051 19.418 322.613 19.418L338.118 19.3214Z" fill="black"/>
<path d="M367.583 380.095C367.583 387.918 364.482 395.423 358.959 400.964C353.436 406.505 345.941 409.631 338.118 409.656H322.613C320.051 409.656 317.594 410.674 315.782 412.486C313.97 414.297 312.952 416.755 312.952 419.317C312.952 421.879 313.97 424.336 315.782 426.148C317.594 427.959 320.051 428.977 322.613 428.977H338.118C351.05 428.977 363.453 423.84 372.598 414.695C381.742 405.551 386.88 393.148 386.88 380.216V364.71C386.88 362.148 385.862 359.691 384.05 357.879C382.238 356.068 379.781 355.05 377.219 355.05C374.657 355.05 372.2 356.068 370.388 357.879C368.576 359.691 367.558 362.148 367.558 364.71L367.583 380.095Z" fill="black"/>
<path d="M48.8099 409.657C40.9823 409.638 33.4818 406.515 27.9537 400.973C22.4255 395.431 19.3211 387.923 19.3211 380.095V364.59C19.3211 362.028 18.3032 359.571 16.4915 357.759C14.6798 355.947 12.2227 354.93 9.66056 354.93C7.09842 354.93 4.64136 355.947 2.82965 357.759C1.01795 359.571 0 362.028 0 364.59V380.095C0 393.028 5.13752 405.431 14.2821 414.575C23.4267 423.72 35.8291 428.857 48.7615 428.857H64.291C66.8532 428.857 69.3105 427.839 71.1222 426.028C72.9339 424.216 73.9516 421.759 73.9516 419.197C73.9516 416.634 72.9339 414.177 71.1222 412.366C69.3105 410.554 66.8532 409.536 64.291 409.536L48.8099 409.657Z" fill="black"/>
<path d="M179.325 54.2201C195.989 54.2201 211.905 54.365 227.796 54.2201C229.997 54.1222 232.193 54.5035 234.232 55.3375C236.271 56.1714 238.105 57.4383 239.606 59.0504C268.975 88.5956 298.447 118.044 328.025 147.396C329.738 149.015 331.083 150.982 331.971 153.165C332.858 155.349 333.267 157.697 333.169 160.052C333.024 216.01 333.169 229.1 333.169 285.059V327.783C333.359 337.679 330.325 347.369 324.523 355.388C320.302 361.485 314.636 366.44 308.032 369.812C301.428 373.184 294.091 374.866 286.677 374.709C224.463 374.709 162.274 374.951 100.06 374.709C73.4933 374.709 53.7615 354.374 53.7373 327.662C53.7373 237.916 53.7373 191.038 53.7373 101.291C53.7373 74.145 73.7348 54.3892 100.953 54.2684C119.091 54.2684 137.18 54.2684 155.415 54.2684H179.421L179.325 54.2201ZM221.469 72.4786H164.061C143.098 72.4786 122.11 72.4786 101.122 72.4786C83.6126 72.4786 72.1407 84.192 72.1407 101.75C72.1407 191.11 72.1407 237.795 72.1407 327.228C72.1407 344.713 83.8057 356.209 101.34 356.209H285.253C287.485 356.254 289.716 356.092 291.918 355.726C306.071 352.973 314.669 341.96 314.669 326.455C314.669 260.232 314.669 236.853 314.669 170.63C314.669 169.181 314.669 167.732 314.427 165.8H309.356C295.227 165.8 281.075 166.065 266.97 165.8C260.921 165.749 254.942 164.504 249.377 162.134C243.811 159.765 238.769 156.318 234.54 151.993C230.312 147.668 226.98 142.549 224.736 136.931C222.493 131.314 221.383 125.308 221.469 119.26C221.469 105.421 221.469 91.5823 221.469 77.7435V72.4786ZM240.041 86.1241C240.041 98.3688 239.776 109.768 240.041 121.168C240.273 128.156 243.206 134.782 248.224 139.652C253.242 144.521 259.954 147.254 266.946 147.275C277.21 147.445 287.475 147.275 297.715 147.275C298.681 147.275 299.623 147.082 300.444 146.986L240.041 86.1241Z" fill="black"/>
<path d="M193.212 309.5H111.532C104.504 309.5 100.204 305.853 100.229 300.202C100.253 294.55 104.6 291.073 111.604 291.073H274.964C276.157 291.027 277.351 291.068 278.538 291.193C280.69 291.518 282.662 292.583 284.112 294.206C285.563 295.828 286.402 297.906 286.484 300.081C286.52 302.193 285.815 304.25 284.492 305.896C283.168 307.542 281.309 308.672 279.239 309.089C277.342 309.428 275.417 309.574 273.491 309.524L193.212 309.5Z" fill="black"/>
<path d="M193.572 225.84H273.465C275.073 225.746 276.686 225.746 278.295 225.84C280.458 226.105 282.458 227.124 283.943 228.719C285.427 230.314 286.301 232.382 286.41 234.559C286.484 236.737 285.771 238.869 284.4 240.564C283.029 242.259 281.093 243.402 278.947 243.784C277.038 244.075 275.106 244.196 273.175 244.147H113.51C111.579 244.196 109.647 244.075 107.738 243.784C105.594 243.397 103.661 242.253 102.291 240.559C100.921 238.866 100.206 236.736 100.275 234.559C100.383 232.386 101.254 230.321 102.733 228.727C104.213 227.132 106.207 226.11 108.366 225.84C109.975 225.747 111.587 225.747 113.196 225.84H193.572Z" fill="black"/>
<path d="M155.993 178.793C140.826 178.793 125.659 178.793 110.492 178.793C103.102 178.793 98.682 173.189 100.832 166.886C102.184 162.756 105.396 160.582 110.492 160.558C128.654 160.558 146.8 160.558 164.929 160.558C177.561 160.558 190.216 160.558 202.847 160.558C204.811 160.452 206.751 161.036 208.33 162.209C209.909 163.382 211.028 165.071 211.493 166.983C212.2 168.819 212.229 170.847 211.574 172.702C210.918 174.557 209.622 176.117 207.919 177.102C205.674 178.23 203.185 178.786 200.673 178.72C185.748 178.865 170.871 178.793 155.993 178.793Z" fill="black"/>
</g>
</svg>
