<svg width="44" height="44" viewBox="0 0 44 44" fill="none" xmlns="http://www.w3.org/2000/svg">
<path d="M32.9452 29.6421C32.1816 28.8439 30.9156 28.8159 30.1174 29.5795C29.3193 30.343 29.2913 31.609 30.0548 32.4072L32.9452 29.6421ZM40.5547 43.3826C41.3182 44.1807 42.5843 44.2087 43.3824 43.4452C44.1806 42.6816 44.2086 41.4156 43.445 40.6174L40.5547 43.3826ZM30.0548 32.4072L40.5547 43.3826L43.445 40.6174L32.9452 29.6421L30.0548 32.4072ZM19.1428 34.2856C10.7797 34.2856 4 27.506 4 19.1428H0C0 29.7151 8.57053 38.2856 19.1428 38.2856V34.2856ZM34.2856 19.1428C34.2856 27.506 27.506 34.2856 19.1428 34.2856V38.2856C29.7151 38.2856 38.2856 29.7151 38.2856 19.1428H34.2856ZM19.1428 4C27.506 4 34.2856 10.7797 34.2856 19.1428H38.2856C38.2856 8.57053 29.7151 0 19.1428 0V4ZM19.1428 0C8.57053 0 0 8.57053 0 19.1428H4C4 10.7797 10.7797 4 19.1428 4V0Z" fill="#9D9D9D"/>
</svg>
