<svg width="211" height="180" viewBox="0 0 211 180" fill="none" xmlns="http://www.w3.org/2000/svg">
<path d="M165.876 179.997C162.209 179.888 158.631 178.845 155.48 176.967L154.822 176.547L112.309 145.172C103.445 153.773 97.5308 159.496 93.4362 163.333L92.9812 163.737C89.0381 167.238 86.2409 169.746 80.2758 169.662C71.7326 169.544 68.9694 161.936 67.4866 157.88V157.711L51.3099 108.174L9.41987 95.079C6.69541 94.3181 4.29716 92.6832 2.59493 90.4261C0.892703 88.1691 -0.0191206 85.4154 0.00030404 82.5896C0.00030404 76.4627 4.60063 71.1942 11.5262 69.1239L189.686 1.79523C195.887 -0.948408 202.054 -0.527633 206.216 2.92296C208.811 5.09431 212.771 10.3291 210.126 21.0848L180.991 165.118C179.525 172.069 176.408 176.681 171.69 178.853C169.857 179.647 167.874 180.037 165.876 179.997ZM161.495 166.818C164.225 168.265 165.994 168.417 166.753 168.063C167.511 167.71 168.724 166.06 169.432 162.66L198.65 18.2739C199.746 13.8807 198.937 12.1302 198.65 11.8945C198.364 11.6589 196.814 11.4232 194.371 12.5173L194.017 12.6687L15.2501 80.2836H15.0308C12.6549 80.9737 11.7956 82.1015 11.7788 82.7074C11.7619 83.3134 12.2168 83.549 12.9582 83.7846L55.0844 96.9138L161.445 31.4366C167.124 27.6662 171.555 29.1306 173.931 31.7564C175.26 33.4056 175.939 35.4835 175.839 37.5983C175.74 39.713 174.869 41.7184 173.392 43.236L172.886 43.7409L90.201 118.055L87.0666 153.049C91.5994 148.757 98.1036 142.462 107.658 133.17L111.247 129.686L161.495 166.818ZM62.9539 105.986L75.9118 145.676L78.8775 112.45L136.405 60.7751L62.9539 105.986Z" fill="black" fill-opacity="0.1"/>
</svg>
