<svg width="60" height="60" viewBox="0 0 60 60" fill="none" xmlns="http://www.w3.org/2000/svg">
<path d="M60 30C60 46.5685 46.5685 60 30 60C13.4315 60 0 46.5685 0 30C0 13.4315 13.4315 0 30 0C46.5685 0 60 13.4315 60 30Z" fill="url(#paint0_linear_563_913)"/>
<path fill-rule="evenodd" clip-rule="evenodd" d="M30.3165 25.0064C27.3686 25.0064 24.9789 27.3961 24.9789 30.344C24.9789 33.2918 27.3686 35.6815 30.3165 35.6815C33.2643 35.6815 35.654 33.2918 35.654 30.344C35.654 27.3961 33.2643 25.0064 30.3165 25.0064ZM27.114 30.344C27.114 28.5753 28.5478 27.1415 30.3165 27.1415C32.0852 27.1415 33.519 28.5753 33.519 30.344C33.519 32.1127 32.0852 33.5465 30.3165 33.5465C28.5478 33.5465 27.114 32.1127 27.114 30.344Z" fill="#FAFAFA"/>
<path fill-rule="evenodd" clip-rule="evenodd" d="M35.1768 17.8645C33.7813 12.9748 26.8516 12.9748 25.4562 17.8645C25.0238 19.3796 23.4673 20.2782 21.9391 19.8951C17.0068 18.6588 13.5419 24.66 17.0788 28.3134C18.1747 29.4453 18.1747 31.2426 17.0788 32.3745C13.5419 36.0279 17.0068 42.0292 21.9391 40.7928C23.4673 40.4097 25.0238 41.3084 25.4562 42.8234C26.8516 47.7131 33.7813 47.7131 35.1768 42.8234C35.6091 41.3084 37.1656 40.4097 38.6938 40.7928C43.6262 42.0292 47.091 36.0279 43.5541 32.3745C42.4583 31.2426 42.4583 29.4453 43.5541 28.3134C47.091 24.66 43.6262 18.6588 38.6938 19.8951C37.1656 20.2782 35.6091 19.3796 35.1768 17.8645ZM27.5092 18.4505C28.3152 15.6262 32.3177 15.6262 33.1237 18.4505C33.8723 21.0734 36.5671 22.6293 39.2129 21.9661C42.0618 21.252 44.063 24.7182 42.0202 26.8284C40.1229 28.7881 40.1229 31.8998 42.0202 33.8596C44.063 35.9697 42.0618 39.436 39.2129 38.7219C36.5671 38.0587 33.8723 39.6145 33.1237 42.2375C32.3177 45.0617 28.3152 45.0617 27.5092 42.2375C26.7606 39.6145 24.0659 38.0587 21.42 38.7219C18.5711 39.436 16.5699 35.9697 18.6127 33.8596C20.51 31.8998 20.51 28.7881 18.6127 26.8284C16.5699 24.7182 18.5711 21.252 21.42 21.9661C24.0659 22.6293 26.7606 21.0734 27.5092 18.4505Z" fill="#FAFAFA"/>
<defs>
<linearGradient id="paint0_linear_563_913" x1="6.76596" y1="49.3913" x2="36.2632" y2="3.07233" gradientUnits="userSpaceOnUse">
<stop stop-color="#FFD209"/>
<stop offset="1" stop-color="#D77400"/>
</linearGradient>
</defs>
</svg>
